# This file uses centimeters as units for non-parametric coordinates.

mtllib Left Rail.mtl
g default
v 3.520147 -0.625738 1.793604
v 3.502342 -0.726198 1.784533
v 3.158086 -0.150417 2.433374
v 2.910034 -0.352761 2.706877
v 3.210770 -0.473858 2.332761
v 2.913400 -0.313836 2.710008
v 3.169867 -0.159437 2.419036
v 3.165057 -0.178247 2.423534
v 2.915025 -0.257247 2.711519
v 3.133703 -0.313836 2.452067
v 3.158833 -0.185672 2.430374
v 3.390758 -0.625738 2.004748
v 3.423943 -0.726198 1.912468
v 3.165466 -0.324885 2.412870
v 3.159291 -0.313836 2.422108
v 3.540120 -0.726198 1.693329
v 3.551093 -0.697483 1.681718
v 3.557753 -0.663164 1.683423
v 3.561513 -0.625738 1.693738
v 3.557574 -0.582876 1.716464
v 3.545053 -0.542330 1.759193
v 3.531505 -0.518034 1.799392
v 3.506427 -0.489241 1.846818
v 3.472302 -0.465040 1.907970
v 3.485233 -0.313836 1.921014
v 3.448630 -0.313836 1.980744
v 3.436040 -0.445671 1.971519
v 3.359242 -0.406143 2.105768
v 3.366749 -0.313836 2.114363
v 3.367690 -0.257926 2.117019
v 3.364876 -0.238454 2.123070
v 3.345043 -0.313836 2.149784
v 3.336600 -0.397637 2.144637
v 3.265529 -0.361222 2.268837
v 3.269710 -0.313836 2.272715
v 3.271997 -0.237074 2.274738
v 3.327437 -0.224743 2.185193
v 3.344043 -0.188809 2.160787
v 3.349800 -0.204307 2.150231
v 3.345100 -0.256004 2.154026
v 3.248954 -0.313836 2.306587
v 3.243559 -0.353945 2.306332
v 3.223351 -0.342468 2.341901
v 3.486309 -0.195676 1.928116
v 3.452294 -0.185929 1.984354
v 3.367088 -0.157650 2.125519
v 3.249947 -0.124091 2.319190
v 3.157572 -0.106328 2.436635
v 3.137256 -0.099779 2.460818
vt 0.100893 0.196922
vt 0.017647 0.196922
vt 0.011677 0.134110
vt 0.012702 0.076511
vt 0.024480 0.028320
vt 0.100893 0.028320
vt 0.100893 0.375446
vt 0.068472 0.335174
vt 0.034671 0.267965
vt 0.217036 0.028320
vt 0.291604 0.196922
vt 0.578332 0.666452
vt 0.578332 0.448669
vt 0.945696 0.649392
vt 0.945696 0.713911
vt 0.686875 0.713911
vt 0.656815 0.713911
vt 0.648315 0.695597
vt 0.664330 0.983115
vt 0.650154 0.968255
vt 0.655103 0.937270
vt 0.662138 0.925038
vt 0.199910 0.713911
vt 0.253361 0.713911
vt 0.379167 0.838090
vt 0.374154 0.806011
vt 0.372932 0.713911
vt 0.404629 0.713911
vt 0.407230 0.809180
vt 0.402779 0.894342
vt 0.411914 0.919870
vt 0.434475 0.860675
vt 0.514862 0.840363
vt 0.514637 0.713911
vt 0.544947 0.713911
vt 0.945696 0.807132
vt 0.514116 0.635366
vt 0.404729 0.575007
vt 0.370044 0.560910
vt 0.251830 0.495390
vt 0.195915 0.463284
vt 0.141949 0.423169
vt 0.547126 0.647430
vt 0.204296 0.908557
vt 0.254285 0.924615
vt 0.379859 0.971200
vt 0.552321 1.026481
vt 0.666484 1.055743
vt 0.690455 1.066532
vn -0.880036 0.156436 -0.448402
vn -0.912572 0.155966 -0.378003
vn -0.906233 0.194511 -0.375377
vn -0.906233 0.194511 -0.375377
vn -0.906233 0.194511 -0.375377
vn -0.873886 0.195089 -0.445268
vn -0.912572 0.155966 -0.378003
vn -0.880036 0.156436 -0.448402
vn -0.884830 0.117538 -0.450845
vn -0.917514 0.117182 -0.380049
vn -0.917514 0.117182 -0.380049
vn -0.880036 0.156436 -0.448402
vn -0.873886 0.195089 -0.445268
vn -0.836356 0.194510 -0.512519
vn -0.842206 0.155965 -0.516104
vn -0.803409 0.117537 -0.583711
vn -0.803409 0.117537 -0.583711
vn -0.755167 0.117179 -0.644975
vn -0.758075 0.078223 -0.647459
vn -0.758788 0.065200 -0.648066
vn -0.758077 0.078221 -0.647457
vn -0.755167 0.117179 -0.644975
vn -0.758075 0.078223 -0.647459
vn -0.759822 0.039147 -0.648951
vn -0.758788 0.065200 -0.648066
vn -0.850028 0.078220 -0.520898
vn -0.850028 0.078220 -0.520898
vn -0.846766 0.117180 -0.518898
vn -0.846766 0.117180 -0.518898
vn -0.850028 0.078220 -0.520898
vn -0.850028 0.078220 -0.520898
vn -0.846766 0.117180 -0.518898
vn -0.846766 0.117180 -0.518898
vn -0.850028 0.078220 -0.520898
vn -0.850028 0.078220 -0.520898
vn -0.846766 0.117180 -0.518898
vn -0.846766 0.117180 -0.518898
vn -0.884830 0.117538 -0.450845
vn -0.880036 0.156436 -0.448402
vn -0.842206 0.155965 -0.516104
vn -0.803409 0.117537 -0.583711
vn -0.803409 0.117537 -0.583711
vn -0.846766 0.117180 -0.518898
vn -0.851985 0.039141 -0.522101
vn -0.851985 0.039141 -0.522101
vn -0.850028 0.078220 -0.520898
vn -0.850028 0.078220 -0.520898
vn -0.851987 0.039138 -0.522098
vn -0.851987 0.039138 -0.522098
vn -0.851987 0.039139 -0.522099
vn -0.851987 0.039139 -0.522099
vn -0.850028 0.078220 -0.520898
vn -0.850028 0.078220 -0.520898
vn -0.851987 0.039139 -0.522099
vn -0.851987 0.039139 -0.522099
vn -0.851987 0.039139 -0.522099
vn -0.851987 0.039139 -0.522099
vn -0.851987 0.039139 -0.522099
vn -0.850028 0.078220 -0.520898
vn -0.850028 0.078220 -0.520898
vn -0.759823 0.039140 -0.648950
vn -0.759823 0.039140 -0.648950
vn -0.759826 0.039142 -0.648947
vn -0.759826 0.039142 -0.648947
vn -0.759826 0.039142 -0.648947
vn -0.759826 0.039142 -0.648947
vn -0.758077 0.078221 -0.647457
vn -0.758788 0.065200 -0.648066
s off
g Left_Rail_A1
usemtl initialShadingGroup
f 1/1/1 19/2/2 18/3/3 17/4/4 16/5/5 2/6/6
f 19/2/7 1/1/8 22/7/9 21/8/10 20/9/11
f 1/1/12 2/6/13 13/10/14 12/11/15
f 43/12/16 5/13/17 4/14/18 6/15/19 10/16/20 15/17/21 14/18/22
f 6/15/23 9/36/24 10/16/25
f 41/35/26 35/34/27 34/37/28 33/38/29 32/28/30 29/27/31 28/39/32 27/40/33 26/24/34 25/23/35 24/41/36 23/42/37 22/7/38 1/1/39 12/11/40 5/13/41 43/12/42 42/43/43
f 45/45/44 44/44/45 25/23/46 26/24/47
f 47/47/48 46/46/49 31/25/50 30/26/51 29/27/52 32/28/53 40/29/54 39/30/55 38/31/56 37/32/57 36/33/58 35/34/59 41/35/60
f 49/49/61 48/48/62 3/19/63 7/20/64 8/21/65 11/22/66 15/17/67 10/16/68
