# XSI Wavefront OBJ Export v3.0
# File Created: Wed Jun 18 14:39:36 2014
# XSI Version: 12.0.921.0
o 12.0.921.0
mtllib Tower2_Mesh.mtl


# Hierarchy (from self to top father)
g sphere3

#begin 16 vertices
v -0.691772 7.878309 -8.337580
v -2.998953 10.051861 -7.240112
v -3.106270 9.268105 -7.499198
v -3.183671 8.460636 -7.686062
v -0.644939 10.051861 -7.773120
v -3.216727 7.878309 -7.765867
v -3.045547 7.878309 -7.817794
v -1.639873 7.878309 -8.244201
v -1.528853 10.051861 -7.686062
v -0.668018 9.268105 -8.051279
v -0.684663 8.460636 -8.251900
v -3.014250 8.460636 -7.737456
v -2.940967 9.268105 -7.549342
v -2.839361 10.051861 -7.288524
v -1.623022 8.460636 -8.159480
v -1.583562 9.268105 -7.961106
#end 16 vertices

#begin 36 normals
vn 0.284759 -0.194191 0.938724
vn 0.277897 -0.289010 0.916104
vn 0.284759 -0.194191 0.938724
vn 0.183686 -0.336890 0.923453
vn 0.191342 -0.195095 0.961939
vn 0.287172 -0.146039 0.946681
vn 0.192979 -0.146730 0.970170
vn 0.273465 -0.335451 0.901493
vn 0.277897 -0.289010 0.916104
vn 0.186689 -0.290291 0.938551
vn 0.186689 -0.290291 0.938551
vn 0.186689 -0.290291 0.938551
vn 0.186689 -0.290291 0.938551
vn 0.183686 -0.336890 0.923453
vn 0.273465 -0.335451 0.901493
vn 0.191342 -0.195095 0.961939
vn 0.287172 -0.146039 0.946681
vn 0.277897 -0.289010 0.916104
vn 0.284759 -0.194191 0.938724
vn 0.287172 -0.146039 0.946681
vn 0.093834 -0.289010 0.952716
vn 0.277897 -0.289010 0.916104
vn 0.277897 -0.289010 0.916104
vn 0.284759 -0.194191 0.938724
vn 0.284759 -0.194191 0.938724
vn 0.191342 -0.195095 0.961939
vn 0.092338 -0.335451 0.937522
vn 0.096151 -0.194191 0.976240
vn 0.191342 -0.195095 0.961939
vn 0.093834 -0.289010 0.952716
vn 0.096151 -0.194191 0.976240
vn 0.192979 -0.146730 0.970170
vn 0.096966 -0.146039 0.984515
vn 0.273465 -0.335451 0.901493
vn 0.277897 -0.289010 0.916104
vn 0.284759 -0.194191 0.938724
#end 36 vertex normals

#begin texture vertices
vt 0.998579 0.000342 0.000000
vt 0.003937 0.999666 0.000000
vt 0.003937 0.630533 0.000000
vt 0.003937 0.261400 0.000000
vt 0.998579 0.999666 0.000000
vt 0.003937 0.000342 0.000000
vt 0.072357 0.000342 0.000000
vt 0.634194 0.000342 0.000000
vt 0.634194 0.999666 0.000000
vt 0.998579 0.630533 0.000000
vt 0.998579 0.261400 0.000000
vt 0.072357 0.261400 0.000000
vt 0.072357 0.630533 0.000000
vt 0.072357 0.999666 0.000000
vt 0.634194 0.261400 0.000000
vt 0.634194 0.630533 0.000000
#end 16 texture vertices

#begin 9 faces
usemtl material33
f 16/16/12 9/9/4 14/14/15 13/13/23 
usemtl material33
f 15/15/26 16/16/13 13/13/22 12/12/25 
usemtl material33
f 12/12/24 7/7/6 8/8/7 15/15/29 
usemtl material33
f 4/4/36 6/6/17 7/7/20 12/12/3 
usemtl material33
f 16/16/11 10/10/21 5/5/27 9/9/14 
usemtl material33
f 3/3/9 13/13/35 14/14/34 2/2/8 
usemtl material33
f 4/4/19 12/12/1 13/13/2 3/3/18 
usemtl material33
f 15/15/5 11/11/28 10/10/30 16/16/10 
usemtl material33
f 15/15/16 8/8/32 1/1/33 11/11/31 
#end 9 faces

# Hierarchy (from self to top father)
g sphere4

#begin 9 vertices
v -0.040389 8.460636 -8.319334
v -0.676109 8.875606 -8.148798
v -0.040389 8.875606 -8.215389
v 0.697113 8.875606 -8.139586
v 0.714943 7.878309 -8.328155
v -0.691772 7.878309 -8.337580
v -0.684663 8.460636 -8.251900
v -0.040389 7.878309 -8.405714
v 0.706851 8.460636 -8.242572
#end 9 vertices

#begin 16 normals
vn 0.101048 -0.241795 0.965052
vn 0.102949 -0.145987 0.983915
vn 0.000943 -0.146763 0.989171
vn 0.000943 -0.146763 0.989171
vn -0.101072 -0.146007 0.984107
vn 0.000941 -0.195137 0.980775
vn 0.000941 -0.195137 0.980775
vn 0.000941 -0.195137 0.980775
vn 0.000941 -0.195137 0.980775
vn 0.000937 -0.243032 0.970018
vn 0.000937 -0.243032 0.970018
vn -0.099183 -0.241828 0.965237
vn -0.100247 -0.194149 0.975836
vn -0.100247 -0.194149 0.975836
vn 0.102120 -0.194122 0.975647
vn 0.102120 -0.194122 0.975647
#end 16 vertex normals

#begin texture vertices
vt 0.468229 0.649546 0.000000
vt 0.469924 0.649546 0.000000
vt 0.003086 1.120615 0.000000
vt 0.468229 1.120615 0.000000
vt 0.469924 1.120615 0.000000
vt 0.999414 1.120615 0.000000
vt 0.999414 0.001288 0.000000
vt 0.003086 0.001288 0.000000
vt 0.003086 0.649546 0.000000
vt 0.469924 0.001288 0.000000
vt 0.468229 0.001288 0.000000
vt 0.999414 0.650254 0.000000
#end 12 texture vertices

#begin 4 faces
usemtl material57
f 23/25/51 22/24/38 24/27/39 17/17/43 
usemtl material57
f 17/18/44 24/26/40 21/23/41 25/28/49 
usemtl material57
f 17/17/42 19/20/46 18/19/37 23/25/52 
usemtl material57
f 17/18/45 25/28/50 20/22/48 19/21/47 
#end 4 faces

# Hierarchy (from self to top father)
g sphere5

#begin 12 vertices
v 0.697079 8.875691 -8.139565
v 1.530460 8.875691 -8.057512
v 0.714911 7.878309 -8.328155
v 1.567595 7.878309 -8.244201
v 0.706818 8.461031 -8.242572
v 2.522180 7.878309 -7.954630
v 2.463429 8.875691 -7.774499
v 2.495519 8.460636 -7.872886
v 1.550743 8.460636 -8.159480
v 0.709156 8.292669 -8.267299
v 1.555612 8.292388 -8.183958
v 2.503222 8.292388 -7.896504
#end 12 vertices

#begin 24 normals
vn -0.096176 -0.194222 0.976232
vn -0.096176 -0.194222 0.976232
vn -0.095129 -0.241987 0.965605
vn -0.189255 -0.243034 0.951376
vn -0.189255 -0.243034 0.951376
vn -0.096959 -0.145991 0.984523
vn -0.192975 -0.146706 0.970174
vn -0.281665 -0.241879 0.928526
vn -0.284759 -0.194191 0.938724
vn -0.287172 -0.146039 0.946681
vn -0.284759 -0.194191 0.938724
vn -0.191354 -0.195110 0.961933
vn -0.191354 -0.195110 0.961933
vn -0.191354 -0.195110 0.961933
vn -0.192975 -0.146706 0.970174
vn -0.191354 -0.195110 0.961933
vn -0.096976 -0.145991 0.984521
vn -0.192984 -0.146706 0.970173
vn -0.192984 -0.146706 0.970173
vn -0.287172 -0.146039 0.946681
vn -0.192984 -0.146706 0.970173
vn -0.096976 -0.145991 0.984521
vn -0.287172 -0.146039 0.946681
vn -0.192984 -0.146706 0.970173
#end 24 vertex normals

#begin texture vertices
vt -0.000426 1.117927 0.000000
vt 0.636190 1.119896 0.000000
vt 0.000813 0.008075 0.000000
vt 0.637419 0.009095 0.000000
vt 0.000263 0.644007 0.000000
vt 1.380061 0.010242 0.000000
vt 1.378874 1.122111 0.000000
vt 1.379534 0.647354 0.000000
vt 0.636873 0.645582 0.000000
vt 0.000422 0.465397 0.000000
vt 0.637030 0.466812 0.000000
vt 1.379686 0.468403 0.000000
#end 12 texture vertices

#begin 6 faces
usemtl material58
f 28/31/58 29/32/59 36/39/71 35/38/69 
usemtl material58
f 29/32/67 31/34/62 37/40/72 36/39/70 
usemtl material58
f 34/37/65 27/30/56 26/29/55 30/33/53 
usemtl material58
f 34/37/64 33/36/63 32/35/60 27/30/57 
usemtl material58
f 34/37/66 30/33/54 35/38/74 36/39/73 
usemtl material58
f 33/36/61 34/37/68 36/39/76 37/40/75 
#end 6 faces

# Hierarchy (from self to top father)
g sphere16

#begin 25 vertices
v 0.745557 5.386120 -8.276049
v -0.037047 7.640174 -8.440830
v -0.724545 5.386120 -8.285417
v -0.037047 6.808762 -8.481674
v -0.037047 5.977349 -8.440830
v 1.592693 5.386120 -8.192614
v 2.568449 5.977349 -7.987827
v 2.581056 6.808762 -8.026480
v 2.568449 7.640174 -7.987827
v 2.541380 5.386120 -7.904833
v 1.609803 7.640174 -8.278629
v -0.728820 7.881253 -8.336935
v 2.557412 7.881253 -7.953985
v 1.602826 7.881253 -8.243556
v -0.037047 7.881253 -8.405069
v 0.753774 5.977349 -8.362941
v 0.757600 6.808762 -8.403409
v 0.753774 7.640174 -8.362941
v -0.731763 7.640174 -8.372406
v -0.037047 5.386120 -8.353129
v 0.750423 7.881253 -8.327510
v 1.609803 5.977349 -8.278629
v 1.617771 6.808762 -8.318689
v -0.731763 5.977349 -8.372406
v -0.735124 6.808762 -8.412920
#end 25 vertices

#begin 64 normals
vn 0.096966 -0.146039 0.984515
vn 0.000000 -0.146730 0.989177
vn 0.000000 -0.146730 0.989177
vn 0.097550 -0.097552 0.990438
vn 0.097550 -0.097552 0.990438
vn 0.000000 0.098019 0.995185
vn 0.098017 0.000000 0.995185
vn 0.098017 0.000000 0.995185
vn -0.194151 0.098019 0.976062
vn 0.000000 0.098019 0.995185
vn -0.194151 -0.098019 0.976062
vn -0.288900 -0.097552 0.952376
vn -0.288900 -0.097552 0.952376
vn 0.097550 0.097552 0.990438
vn 0.097550 0.097552 0.990438
vn -0.195090 0.000000 0.980785
vn -0.195090 0.000000 0.980785
vn 0.000000 -0.098019 0.995185
vn 0.000000 -0.098019 0.995185
vn 0.000000 -0.098019 0.995185
vn -0.192979 0.146730 0.970170
vn -0.287172 0.146039 0.946681
vn -0.096966 0.146039 0.984515
vn -0.096966 -0.146039 0.984515
vn -0.192979 0.146730 0.970170
vn -0.096966 0.146039 0.984515
vn -0.290285 0.000000 0.956940
vn -0.288900 0.097552 0.952376
vn 0.000000 0.146730 0.989177
vn 0.000000 0.000000 1.000000
vn -0.288900 0.097552 0.952376
vn 0.000000 0.000000 1.000000
vn 0.000000 0.000000 1.000000
vn -0.096966 -0.146039 0.984515
vn -0.195090 0.000000 0.980785
vn 0.000000 0.000000 1.000000
vn -0.192979 -0.146730 0.970170
vn -0.097550 -0.097552 0.990438
vn 0.000000 0.098019 0.995185
vn -0.192979 -0.146730 0.970170
vn -0.097550 -0.097552 0.990438
vn -0.287172 -0.146039 0.946681
vn -0.290285 0.000000 0.956940
vn -0.098017 0.000000 0.995185
vn -0.098017 0.000000 0.995185
vn -0.097550 0.097552 0.990438
vn -0.097550 0.097552 0.990438
vn -0.194151 -0.098019 0.976062
vn -0.195090 0.000000 0.980785
vn 0.096966 0.146039 0.984515
vn 0.000000 0.098019 0.995185
vn 0.000000 0.146730 0.989177
vn -0.194151 -0.098019 0.976062
vn -0.194151 0.098019 0.976062
vn -0.194151 0.098019 0.976062
vn -0.097550 -0.097552 0.990438
vn -0.194151 0.098019 0.976062
vn -0.097550 -0.097552 0.990438
vn -0.098017 0.000000 0.995185
vn -0.194151 -0.098019 0.976062
vn 0.000000 -0.098019 0.995185
vn -0.097550 0.097552 0.990438
vn -0.097550 0.097552 0.990438
vn -0.098017 0.000000 0.995185
#end 64 vertex normals

#begin texture vertices
vt 0.522150 0.248796 0.000000
vt 0.241808 0.926937 0.000000
vt 0.247369 0.927367 0.000000
vt -0.011878 0.248723 0.000000
vt 0.241873 0.721987 0.000000
vt 0.247422 0.722417 0.000000
vt 0.241808 0.443679 0.000000
vt 0.247369 0.444109 0.000000
vt 0.842123 0.248591 0.000000
vt 1.042201 0.443745 0.000000
vt 1.042250 0.722418 0.000000
vt 1.042201 0.927735 0.000000
vt 1.042089 0.248362 0.000000
vt 0.842238 0.927599 0.000000
vt -0.011795 1.000314 0.000000
vt 1.042155 1.000826 0.000000
vt 0.842192 1.000652 0.000000
vt 0.241751 0.999923 0.000000
vt 0.247321 1.000353 0.000000
vt 0.522265 0.443998 0.000000
vt 0.522317 0.722417 0.000000
vt 0.522265 0.927478 0.000000
vt -0.011737 0.927357 0.000000
vt 0.247252 0.248986 0.000000
vt 0.241667 0.248556 0.000000
vt 0.522218 1.000496 0.000000
vt 0.842238 0.443878 0.000000
vt 0.842290 0.722418 0.000000
vt -0.011737 0.443776 0.000000
vt -0.011673 0.721987 0.000000
#end 30 texture vertices

#begin 16 faces
usemtl material55
f 41/45/109 39/42/95 56/63/80 62/70/84 
usemtl material55
f 60/68/92 48/54/136 55/62/132 54/61/140 
usemtl material55
f 48/54/87 51/57/113 58/66/110 55/62/134 
usemtl material55
f 48/54/124 46/52/89 50/56/118 51/57/116 
usemtl material55
f 53/60/139 38/41/99 43/49/97 59/67/131 
usemtl material55
f 39/43/96 55/62/114 58/66/100 52/59/79 
usemtl material55
f 61/69/90 40/44/126 57/65/128 42/47/86 
usemtl material55
f 59/67/85 43/49/101 47/53/98 44/50/107 
usemtl material55
f 42/48/127 57/64/105 38/41/102 53/60/123 
usemtl material55
f 39/42/94 52/58/78 49/55/77 56/63/81 
usemtl material55
f 59/67/133 44/50/104 45/51/103 60/68/111 
usemtl material55
f 59/67/130 60/68/93 54/61/135 53/60/138 
usemtl material55
f 41/46/106 54/61/120 55/62/117 39/43/137 
usemtl material55
f 42/48/115 53/60/122 54/61/121 41/46/112 
usemtl material55
f 60/68/125 45/51/119 46/52/88 48/54/129 
usemtl material55
f 42/47/82 41/45/108 62/70/83 61/69/91 
#end 16 faces

# Hierarchy (from self to top father)
g sphere15

#begin 20 vertices
v -1.629740 5.383176 -8.193259
v -1.646850 5.974405 -8.279274
v -0.687498 5.383176 -8.286061
v -3.246043 6.805818 -7.836641
v -3.196851 5.383176 -7.717881
v -3.026728 5.383176 -7.769487
v -3.230412 7.637231 -7.798906
v -3.058504 7.637231 -7.851054
v -3.073303 6.805818 -7.889041
v -1.639873 7.878309 -8.244201
v -3.045547 7.878309 -7.817794
v -3.216727 7.878309 -7.765867
v -3.230412 5.974405 -7.798906
v -3.058504 5.974405 -7.851054
v -1.654818 6.805818 -8.319334
v -0.691772 7.878309 -8.337580
v -0.694715 7.637231 -8.373051
v -0.698077 6.805818 -8.413565
v -1.646850 7.637231 -8.279274
v -0.694715 5.974405 -8.373051
#end 20 vertices

#begin 48 normals
vn 0.195090 0.000000 0.980785
vn 0.195090 0.000000 0.980785
vn 0.290285 0.000000 0.956940
vn 0.195090 0.000000 0.980785
vn 0.194151 0.098019 0.976062
vn 0.288900 0.097552 0.952376
vn 0.288900 -0.097552 0.952376
vn 0.288900 -0.097552 0.952376
vn 0.194151 -0.098019 0.976062
vn 0.194151 -0.098019 0.976062
vn 0.192979 -0.146730 0.970170
vn 0.096966 -0.146039 0.984515
vn 0.287172 0.146039 0.946681
vn 0.290285 0.000000 0.956940
vn 0.290285 0.000000 0.956940
vn 0.288900 0.097552 0.952376
vn 0.194151 -0.098019 0.976062
vn 0.290285 0.000000 0.956940
vn 0.288900 0.097552 0.952376
vn 0.194151 -0.098019 0.976062
vn 0.195090 0.000000 0.980785
vn 0.288900 -0.097552 0.952376
vn 0.288900 0.097552 0.952376
vn 0.194151 0.098019 0.976062
vn 0.290285 0.000000 0.956940
vn 0.097550 0.097552 0.990438
vn 0.194151 0.098019 0.976062
vn 0.288900 -0.097552 0.952376
vn 0.097550 0.097552 0.990438
vn 0.096966 0.146039 0.984515
vn 0.098017 0.000000 0.995185
vn 0.288900 0.097552 0.952376
vn 0.192979 0.146730 0.970170
vn 0.287172 0.146039 0.946681
vn 0.097550 -0.097552 0.990438
vn 0.098017 0.000000 0.995185
vn 0.287172 0.146039 0.946681
vn 0.097550 -0.097552 0.990438
vn 0.290285 0.000000 0.956940
vn 0.287172 -0.146039 0.946681
vn 0.288900 -0.097552 0.952376
vn 0.192979 0.146730 0.970170
vn 0.287172 -0.146039 0.946681
vn 0.194151 0.098019 0.976062
vn 0.288900 0.097552 0.952376
vn 0.192979 -0.146730 0.970170
vn 0.288900 -0.097552 0.952376
vn 0.287172 -0.146039 0.946681
#end 48 vertex normals

#begin texture vertices
vt 0.633836 0.286464 0.000000
vt 0.633836 0.464639 0.000000
vt 0.998803 0.286464 0.000000
vt 0.002574 0.674292 0.000000
vt 0.002574 0.286464 0.000000
vt 0.071102 0.286464 0.000000
vt 0.002574 0.886436 0.000000
vt 0.071102 0.886436 0.000000
vt 0.071102 0.674292 0.000000
vt 0.633836 0.997579 0.000000
vt 0.071102 0.997579 0.000000
vt 0.002574 0.997579 0.000000
vt 0.002574 0.464639 0.000000
vt 0.071102 0.464639 0.000000
vt 0.633836 0.688505 0.000000
vt 0.998803 0.997579 0.000000
vt 0.998803 0.929247 0.000000
vt 0.998803 0.717103 0.000000
vt 0.633836 0.913679 0.000000
vt 0.998803 0.464639 0.000000
#end 20 texture vertices

#begin 12 faces
usemtl material54
f 81/89/150 72/80/186 73/81/188 70/78/148 
usemtl material54
f 64/72/164 77/85/142 71/79/154 76/84/172 
usemtl material54
f 75/83/163 76/84/159 71/79/158 66/74/143 
usemtl material54
f 66/74/179 71/79/165 70/78/162 69/77/181 
usemtl material54
f 64/72/145 82/90/169 80/88/171 77/85/144 
usemtl material54
f 81/89/157 79/87/175 78/86/152 72/80/151 
usemtl material54
f 77/85/161 80/88/176 79/87/178 81/89/160 
usemtl material54
f 69/77/168 70/78/187 73/81/183 74/82/180 
usemtl material54
f 77/85/141 81/89/149 70/78/147 71/79/155 
usemtl material54
f 64/72/167 63/71/173 65/73/170 82/90/166 
usemtl material54
f 75/83/185 67/75/177 68/76/174 76/84/146 
usemtl material54
f 76/84/156 68/76/153 63/71/182 64/72/184 
#end 12 faces
