# 3ds Max Wavefront OBJ Exporter v0.97b - (c)2007 guruware
# File Created: 27.05.2015 10:08:55

mtllib Shot_DO_Mesh.mtl

#
# object Pano_A1
#

v  0.4542 0.0001 0.8910
v  0.4093 0.0001 0.9096
v  0.4093 0.3176 0.9096
v  0.4542 0.3176 0.8910
v  0.5880 0.0001 0.8090
v  0.5880 0.3176 0.8090
v  0.7073 0.0001 0.7071
v  0.7073 0.3176 0.7071
v  0.7331 0.0001 0.6769
v  0.7331 0.3176 0.6769
# 10 vertices

vn -0.4540 0.0000 -0.8910
vn -0.3827 0.0000 -0.9239
vn -0.5878 0.0000 -0.8090
vn -0.7071 0.0000 -0.7071
vn -0.7604 0.0000 -0.6494
# 5 vertex normals

vt 0.8788 0.0005 0.0000
vt 0.9994 0.0005 0.0000
vt 0.9994 0.9992 0.0000
vt 0.8788 0.9992 0.0000
vt 0.4893 0.0005 0.0000
vt 0.4893 0.9992 0.0000
vt 0.0998 0.0005 0.0000
vt 0.0998 0.9992 0.0000
vt 0.0012 0.0005 0.0000
vt 0.0012 0.9992 0.0000
# 10 texture coords

g Pano_A1
usemtl Material__31
s 1
f 1/1/1 2/2/2 3/3/2 4/4/1 
f 5/5/3 1/1/1 4/4/1 6/6/3 
f 7/7/4 5/5/3 6/6/3 8/8/4 
f 9/9/5 7/7/4 8/8/4 10/10/5 
# 4 polygons

#
# object Pano_AB5
#

v  0.3092 0.3176 0.9511
v  0.3092 0.0001 0.9511
v  0.1566 0.0001 0.9877
v  0.1566 0.3176 0.9877
v  0.4093 0.3176 0.9096
v  0.4093 0.0001 0.9096
v  0.0002 0.0001 1.0000
v  0.0002 0.3176 1.0000
# 8 vertices

vn -0.3090 0.0000 -0.9511
vn -0.1564 0.0000 -0.9877
vn -0.3827 0.0000 -0.9239
vn -0.0785 0.0000 -0.9969
# 4 vertex normals

vt 0.2569 0.9968 0.0000
vt 0.2569 0.0010 0.0000
vt 0.6275 0.0010 0.0000
vt 0.6275 0.9968 0.0000
vt 0.0010 0.9989 0.0000
vt 0.0010 0.0010 0.0000
vt 0.9981 0.0010 0.0000
vt 0.9981 0.9968 0.0000
# 8 texture coords

g Pano_AB5
usemtl Material__29
s 1
f 11/11/6 12/12/6 13/13/7 14/14/7 
f 15/15/8 16/16/8 12/12/6 11/11/6 
f 14/14/7 13/13/7 17/17/9 18/18/9 
# 3 polygons

#
# object Pano_AB1
#

v  0.4093 0.0001 0.9096
v  0.4542 0.0001 0.8910
v  0.4542 -0.3169 0.8910
v  0.4093 -0.3169 0.9096
v  0.1566 0.0001 0.9877
v  0.1566 -0.3169 0.9877
v  0.0002 -0.3169 1.0000
v  0.0002 0.0001 1.0000
v  0.5880 -0.3169 0.8090
v  0.5880 0.0001 0.8090
v  0.7073 0.0001 0.7071
v  0.7073 -0.3169 0.7071
v  0.3092 0.0001 0.9511
v  0.3092 -0.3169 0.9511
v  0.7331 0.0001 0.6769
v  0.7331 -0.3169 0.6769
# 16 vertices

vn -0.3827 0.0000 -0.9239
vn -0.4540 0.0000 -0.8910
vn -0.1564 0.0000 -0.9877
vn -0.0785 0.0000 -0.9969
vn -0.5878 0.0000 -0.8090
vn -0.7071 0.0000 -0.7071
vn -0.3090 0.0000 -0.9511
vn -0.7604 0.0000 -0.6494
# 8 vertex normals

vt 0.4875 0.5001 0.0000
vt 0.4286 0.5001 0.0000
vt 0.4286 0.0011 0.0000
vt 0.4875 0.0011 0.0000
vt 0.8091 0.5001 0.0000
vt 0.8091 0.0011 0.0000
vt 0.9994 0.0011 0.0000
vt 0.9994 0.5001 0.0000
vt 0.2384 0.0011 0.0000
vt 0.2384 0.5001 0.0000
vt 0.0481 0.5001 0.0000
vt 0.0481 0.0011 0.0000
vt 0.6189 0.5001 0.0000
vt 0.6189 0.0011 0.0000
vt -0.0000 0.5001 0.0000
vt -0.0000 0.0011 0.0000
# 16 texture coords

g Pano_AB1
usemtl Material__33
s 1
f 19/19/10 20/20/11 21/21/11 22/22/10 
f 23/23/12 24/24/12 25/25/13 26/26/13 
f 27/27/14 28/28/14 29/29/15 30/30/15 
f 31/31/16 19/19/10 22/22/10 32/32/16 
f 24/24/12 23/23/12 31/31/16 32/32/16 
f 27/27/14 21/21/11 20/20/11 28/28/14 
f 33/33/17 34/34/17 30/30/15 29/29/15 
# 7 polygons

#
# object Pano_AB2
#

v  0.0002 -0.3169 1.0000
v  -0.1563 -0.3169 0.9877
v  -0.1563 0.0001 0.9877
v  0.0002 0.0001 1.0000
v  -0.1563 0.3176 0.9877
v  0.0002 0.3176 1.0000
v  -0.4538 0.0001 0.8910
v  -0.4538 0.3176 0.8910
v  -0.3088 0.3176 0.9511
v  -0.3088 0.0001 0.9511
v  -0.3088 -0.3169 0.9511
v  -0.4538 -0.3169 0.8910
v  -0.7069 0.3176 0.7071
v  -0.7069 0.0001 0.7071
v  -0.7331 0.0001 0.6765
v  -0.7331 0.3176 0.6765
v  -0.7069 -0.3169 0.7071
v  -0.7331 -0.3169 0.6765
v  -0.5876 0.0001 0.8090
v  -0.5876 0.3176 0.8090
v  -0.5876 -0.3169 0.8090
# 21 vertices

vn 0.0785 0.0000 -0.9969
vn 0.1564 0.0000 -0.9877
vn 0.4540 0.0000 -0.8910
vn 0.3090 0.0000 -0.9511
vn 0.7071 0.0000 -0.7071
vn 0.7604 0.0000 -0.6494
vn 0.5878 0.0000 -0.8090
# 7 vertex normals

vt 0.0023 0.0011 0.0000
vt 0.1920 0.0011 0.0000
vt 0.1920 0.5001 0.0000
vt 0.0023 0.5001 0.0000
vt 0.1920 0.9999 0.0000
vt 0.0023 0.9999 0.0000
vt 0.5715 0.5001 0.0000
vt 0.5715 0.9999 0.0000
vt 0.3818 0.9999 0.0000
vt 0.3818 0.5001 0.0000
vt 0.3818 0.0011 0.0000
vt 0.5715 0.0011 0.0000
vt 0.9510 0.9999 0.0000
vt 0.9510 0.5001 0.0000
vt 0.9996 0.5001 0.0000
vt 0.9996 0.9999 0.0000
vt 0.9510 0.0011 0.0000
vt 0.9996 0.0011 0.0000
vt 0.7612 0.5001 0.0000
vt 0.7612 0.9999 0.0000
vt 0.7612 0.0011 0.0000
# 21 texture coords

g Pano_AB2
usemtl Material__34
s 1
f 35/35/18 36/36/19 37/37/19 38/38/18 
f 38/38/18 37/37/19 39/39/19 40/40/18 
f 41/41/20 42/42/20 43/43/21 44/44/21 
f 44/44/21 45/45/21 46/46/20 41/41/20 
f 47/47/22 48/48/22 49/49/23 50/50/23 
f 44/44/21 43/43/21 39/39/19 37/37/19 
f 51/51/22 52/52/23 49/49/23 48/48/22 
f 45/45/21 44/44/21 37/37/19 36/36/19 
f 53/53/24 54/54/24 42/42/20 41/41/20 
f 41/41/20 46/46/20 55/55/24 53/53/24 
f 53/53/24 55/55/24 51/51/22 48/48/22 
f 53/53/24 48/48/22 47/47/22 54/54/24 
# 12 polygons

