# This file uses centimeters as units for non-parametric coordinates.

mtllib Tower2_Mesh2.mtl
g default
v -3.741262 10.896991 -5.777600
v -3.780684 10.756208 -5.845626
v -1.170498 10.797930 -7.390231
v -2.312174 10.797930 -7.116139
v -3.396916 10.838340 -6.226848
v -1.311179 8.132049 -8.278456
v -3.805188 8.158894 -7.078476
v -4.113414 8.973333 -6.419774
v -3.734815 8.903654 -6.931566
v -2.542171 8.874272 -7.823998
v -1.286930 8.874272 -8.125354
v -0.690999 8.874272 -8.172255
v -0.704020 8.132049 -8.326240
v -0.693101 8.785573 -8.197105
v -0.710121 7.518359 -8.398395
v -1.322541 7.518359 -8.350196
v -2.612517 7.518359 -8.040501
v -3.746172 8.814156 -6.955271
v -3.664060 9.457931 -6.783897
v -3.559357 10.086278 -6.565473
v -3.432710 10.695350 -6.301434
v -2.336537 10.657147 -7.191122
v -2.422742 10.052026 -7.456433
v -2.494010 9.426884 -7.675773
v -2.549901 8.785573 -7.847789
v -2.590072 8.132049 -7.971421
v -3.838164 7.544247 -7.147328
v -4.227239 7.617420 -6.616187
v -1.290843 8.785573 -8.150062
v -1.262549 9.426884 -7.971421
v -4.190921 8.231110 -6.553518
v -4.125922 8.884634 -6.441358
v -4.035486 9.525945 -6.285304
v -3.920170 10.151087 -6.086318
v -0.635105 10.657147 -7.511210
v -0.628483 10.797930 -7.432889
v -0.658537 10.052026 -7.788330
v -0.677909 9.426884 -8.017433
v -1.226471 10.052026 -7.743633
v -1.182831 10.657147 -7.468103
vt 0.834008 0.179089
vt 0.998659 0.179089
vt 0.998659 0.371845
vt 0.834008 0.371845
vt 0.834008 0.950111
vt 0.834008 0.996789
vt 0.478439 0.996789
vt 0.478439 0.950111
vt 0.834008 0.757356
vt 0.478439 0.757356
vt 0.834008 0.564601
vt 0.478439 0.564601
vt 0.834008 0.398505
vt 0.478439 0.398505
vt 0.478439 0.371845
vt 0.478439 0.179089
vt 0.998659 0.398505
vt 0.998659 0.564601
vt 0.998659 0.757356
vt 0.122872 0.564601
vt 0.122872 0.398505
vt 0.000568 0.179089
vt 0.000568 0.000321
vt 0.122872 0.000321
vt 0.122872 0.179089
vt 0.478439 0.000321
vt 0.998659 0.950111
vt 0.834008 0.000321
vt 0.998659 0.996789
vt 0.998659 0.000321
vt 0.122872 0.371845
vt 0.122872 0.757356
vt 0.122872 0.950111
vt 0.122872 0.996789
vt 0.000568 0.996789
vt 0.000568 0.950111
vt 0.000568 0.757356
vt 0.000568 0.371845
vt 0.000568 0.564601
vt 0.000568 0.398505
vn 0.154508 -0.156436 0.975528
vn 0.077499 -0.155965 0.984718
vn 0.076304 -0.232767 0.969535
vn 0.152112 -0.233447 0.960398
vn 0.139384 -0.453994 0.880035
vn 0.136488 -0.488621 0.861754
vn 0.269616 -0.488621 0.829793
vn 0.275336 -0.453994 0.847396
vn 0.144526 -0.382687 0.912504
vn 0.139384 -0.453994 0.880035
vn 0.275336 -0.453994 0.847396
vn 0.285494 -0.382687 0.878660
vn 0.148778 -0.309020 0.939346
vn 0.144526 -0.382687 0.912504
vn 0.285494 -0.382687 0.878660
vn 0.293892 -0.309020 0.904508
vn 0.152112 -0.233447 0.960398
vn 0.150561 -0.271440 0.950606
vn 0.297415 -0.271440 0.915349
vn 0.300479 -0.233447 0.924778
vn 0.154508 -0.156436 0.975528
vn 0.152112 -0.233447 0.960398
vn 0.300479 -0.233447 0.924778
vn 0.305212 -0.156436 0.939347
vn 0.152112 -0.233447 0.960398
vn 0.076304 -0.232767 0.969535
vn 0.075530 -0.270665 0.959706
vn 0.150561 -0.271440 0.950606
vn 0.148778 -0.309020 0.939346
vn 0.074641 -0.308158 0.948403
vn 0.072519 -0.381679 0.921446
vn 0.144526 -0.382687 0.912504
vn 0.431770 -0.309020 0.847397
vn 0.436946 -0.271440 0.857554
vn 0.297415 -0.271440 0.915349
vn 0.293892 -0.309020 0.904508
vn 0.516104 -0.155965 0.842206
vn 0.518899 -0.117180 0.846766
vn 0.450844 -0.117537 0.884830
vn 0.448401 -0.156436 0.880037
vn 0.448401 -0.156436 0.880037
vn 0.450844 -0.117537 0.884830
vn 0.306875 -0.117537 0.944464
vn 0.305212 -0.156436 0.939347
vn 0.144526 -0.382687 0.912504
vn 0.072519 -0.381679 0.921446
vn 0.069952 -0.452882 0.888822
vn 0.139384 -0.453994 0.880035
vn 0.305212 -0.156436 0.939347
vn 0.306875 -0.117537 0.944464
vn 0.155350 -0.117537 0.980842
vn 0.154508 -0.156436 0.975528
vn 0.139384 -0.453994 0.880035
vn 0.069952 -0.452882 0.888822
vn 0.068506 -0.487473 0.870446
vn 0.136488 -0.488621 0.861754
vn 0.154508 -0.156436 0.975528
vn 0.155350 -0.117537 0.980842
vn 0.077919 -0.117180 0.990049
vn 0.077499 -0.155965 0.984718
vn 0.305212 -0.156436 0.939347
vn 0.300479 -0.233447 0.924778
vn 0.441446 -0.233447 0.866388
vn 0.448401 -0.156436 0.880037
vn 0.300479 -0.233447 0.924778
vn 0.297415 -0.271440 0.915349
vn 0.436946 -0.271440 0.857554
vn 0.441446 -0.233447 0.866388
vn 0.293892 -0.309020 0.904508
vn 0.285494 -0.382687 0.878660
vn 0.419432 -0.382687 0.823182
vn 0.431770 -0.309020 0.847397
vn 0.285494 -0.382687 0.878660
vn 0.275336 -0.453994 0.847396
vn 0.404508 -0.453994 0.793891
vn 0.419432 -0.382687 0.823182
vn 0.293892 -0.309020 0.904508
vn 0.297415 -0.271440 0.915349
vn 0.150561 -0.271440 0.950606
vn 0.148778 -0.309020 0.939346
vn 0.275336 -0.453994 0.847396
vn 0.269616 -0.488621 0.829793
vn 0.396105 -0.488621 0.777400
vn 0.404508 -0.453994 0.793891
vn 0.404508 -0.453994 0.793891
vn 0.396105 -0.488621 0.777400
vn 0.456213 -0.487473 0.744472
vn 0.465844 -0.452882 0.760189
vn 0.419432 -0.382687 0.823182
vn 0.404508 -0.453994 0.793891
vn 0.465844 -0.452882 0.760189
vn 0.482943 -0.381679 0.788091
vn 0.448401 -0.156436 0.880037
vn 0.441446 -0.233447 0.866388
vn 0.508147 -0.232767 0.829220
vn 0.516104 -0.155965 0.842206
vn 0.497071 -0.308158 0.811147
vn 0.502996 -0.270665 0.820814
vn 0.436946 -0.271440 0.857554
vn 0.431770 -0.309020 0.847397
vn 0.148778 -0.309020 0.939346
vn 0.150561 -0.271440 0.950606
vn 0.075530 -0.270665 0.959706
vn 0.074641 -0.308158 0.948403
vn 0.431770 -0.309020 0.847397
vn 0.419432 -0.382687 0.823182
vn 0.482943 -0.381679 0.788091
vn 0.497071 -0.308158 0.811147
vn 0.441446 -0.233447 0.866388
vn 0.436946 -0.271440 0.857554
vn 0.502996 -0.270665 0.820814
vn 0.508147 -0.232767 0.829220
s off
g sphere23
usemtl Tower2_Mesh2:material66
f 6/1/1 13/2/2 14/3/3 29/4/4
f 40/5/5 3/6/6 4/7/7 22/8/8
f 39/9/9 40/5/10 22/8/11 23/10/12
f 30/11/13 39/9/14 23/10/15 24/12/16
f 29/4/17 11/13/18 10/14/19 25/15/20
f 6/1/21 29/4/22 25/15/23 26/16/24
f 29/4/25 14/3/26 12/17/27 11/13/28
f 30/11/29 38/18/30 37/19/31 39/9/32
f 19/20/33 9/21/34 10/14/35 24/12/36
f 31/22/37 28/23/38 27/24/39 7/25/40
f 7/25/41 27/24/42 17/26/43 26/16/44
f 39/9/45 37/19/46 35/27/47 40/5/48
f 26/16/49 17/26/50 16/28/51 6/1/52
f 40/5/53 35/27/54 36/29/55 3/6/56
f 6/1/57 16/28/58 15/30/59 13/2/60
f 26/16/61 25/15/62 18/31/63 7/25/64
f 25/15/65 10/14/66 9/21/67 18/31/68
f 24/12/69 23/10/70 20/32/71 19/20/72
f 23/10/73 22/8/74 21/33/75 20/32/76
f 24/12/77 10/14/78 11/13/79 30/11/80
f 22/8/81 4/7/82 5/34/83 21/33/84
f 21/33/85 5/34/86 1/35/87 2/36/88
f 20/32/89 21/33/90 2/36/91 34/37/92
f 7/25/93 18/31/94 32/38/95 31/22/96
f 33/39/97 8/40/98 9/21/99 19/20/100
f 30/11/101 11/13/102 12/17/103 38/18/104
f 19/20/105 20/32/106 34/37/107 33/39/108
f 18/31/109 9/21/110 8/40/111 32/38/112
g default
v 0.951362 7.518359 -8.379409
v -0.704020 8.132049 -8.326240
v -0.693101 8.785573 -8.197105
v 0.928560 8.785573 -8.178574
v 0.000000 8.785573 -8.251654
v 0.000000 7.518359 -8.454283
v -0.710121 7.518359 -8.398395
v 0.000000 8.132049 -8.381648
v 0.943189 8.132049 -8.307417
v 0.925745 8.874272 -8.153780
v 0.000000 8.874272 -8.226638
v -0.690999 8.874272 -8.172255
vt 0.430101 0.930780
vt 0.430101 0.997279
vt 0.000420 0.997279
vt 0.000420 0.930780
vt 0.430101 0.449982
vt 0.000420 0.449982
vt 0.000420 0.000484
vt 0.430101 0.000484
vt 0.430093 0.449982
vt 0.430091 0.000484
vt 0.999586 0.000484
vt 0.999587 0.449982
vt 0.999587 0.930780
vt 0.430093 0.930780
vt 0.999587 0.997279
vt 0.430093 0.997279
vn 0.075530 -0.270666 0.959706
vn 0.075530 -0.270666 0.959706
vn 0.075530 -0.270666 0.959706
vn 0.075530 -0.270666 0.959706
vn 0.000000 -0.156436 0.987688
vn 0.000000 -0.233447 0.972369
vn 0.076304 -0.232767 0.969535
vn 0.077499 -0.155965 0.984718
vn 0.077499 -0.155965 0.984718
vn 0.077919 -0.117180 0.990049
vn 0.000000 -0.117537 0.993069
vn 0.000000 -0.156436 0.987688
vn 0.000000 -0.156436 0.987688
vn 0.000000 -0.117537 0.993069
vn -0.077919 -0.117180 0.990049
vn -0.077499 -0.155965 0.984718
vn 0.000000 -0.156436 0.987688
vn -0.077499 -0.155965 0.984718
vn -0.076304 -0.232767 0.969535
vn 0.000000 -0.233447 0.972369
vn 0.000000 -0.233447 0.972369
vn -0.076304 -0.232767 0.969535
vn -0.075530 -0.270665 0.959706
vn 0.000000 -0.271440 0.962455
s off
g sphere25
usemtl Tower2_Mesh2:material68
f 45/41/113 51/42/114 52/43/115 43/44/116
f 48/45/117 45/41/118 43/44/119 42/46/120
f 42/46/121 47/47/122 46/48/123 48/45/124
f 48/49/125 46/50/126 41/51/127 49/52/128
f 48/49/129 49/52/130 44/53/131 45/54/132
f 45/54/133 44/53/134 50/55/135 51/56/136
g default
v 0.928560 8.785573 -8.178574
v 1.322541 7.518359 -8.350196
v 0.943189 8.132049 -8.307417
v 2.505256 7.518359 -8.066252
v 0.951362 7.518359 -8.379409
v 2.483733 8.132049 -7.996950
v 1.311179 8.132049 -8.278456
v 1.290843 8.785573 -8.150062
v 2.445211 8.785573 -7.872923
v 2.437799 8.874272 -7.849055
v 1.286930 8.874272 -8.125354
v 0.925745 8.874272 -8.153780
vt 0.335966 0.005034
vt 1.431331 0.005034
vt 1.431331 0.452689
vt 0.335966 0.452689
vt 0.000667 0.452689
vt 0.000665 0.005034
vt 1.431331 0.935369
vt 0.335966 0.935369
vt 1.431331 1.002128
vt 0.335966 1.002128
vt 0.000667 1.002128
vt 0.000667 0.935369
vn -0.231837 -0.117180 0.965671
vn -0.231837 -0.117180 0.965671
vn -0.231837 -0.117180 0.965671
vn -0.231837 -0.117180 0.965671
vn -0.154508 -0.156436 0.975528
vn -0.077499 -0.155965 0.984718
vn -0.077919 -0.117180 0.990049
vn -0.155350 -0.117537 0.980842
vn -0.154508 -0.156436 0.975528
vn -0.230589 -0.155965 0.960470
vn -0.227033 -0.232767 0.945661
vn -0.152112 -0.233447 0.960398
vn -0.152112 -0.233447 0.960398
vn -0.227033 -0.232767 0.945661
vn -0.224732 -0.270665 0.936075
vn -0.150561 -0.271440 0.950606
vn -0.152112 -0.233447 0.960398
vn -0.150561 -0.271440 0.950606
vn -0.075530 -0.270665 0.959706
vn -0.076304 -0.232767 0.969535
vn -0.154508 -0.156436 0.975528
vn -0.152112 -0.233447 0.960398
vn -0.076304 -0.232767 0.969535
vn -0.077499 -0.155965 0.984718
s off
g sphere26
usemtl Tower2_Mesh2:material70
f 54/57/137 56/58/138 58/59/139 59/60/140
f 59/60/141 55/61/142 57/62/143 54/57/144
f 59/60/145 58/59/146 61/63/147 60/64/148
f 60/64/149 61/63/150 62/65/151 63/66/152
f 60/64/153 63/66/154 64/67/155 53/68/156
f 59/60/157 60/64/158 53/68/159 55/61/160
g default
v 0.000000 4.182169 -8.070785
v 0.000000 4.823480 -8.251654
v 0.000000 5.477004 -8.381648
v 0.000000 6.138713 -8.459966
v 0.000000 6.804527 -8.486126
v 0.000000 7.470340 -8.459966
v -0.710598 7.470340 -8.404041
v -0.712795 6.804527 -8.430028
v -0.710598 6.138713 -8.404041
v -0.704020 5.477004 -8.326240
v -0.693101 4.823480 -8.197105
v -0.677909 4.182169 -8.017433
v 0.908207 4.182169 -7.999308
v 0.928560 4.823480 -8.178574
v 0.943189 5.477004 -8.307417
v 0.952002 6.138713 -8.385042
v 0.954946 6.804527 -8.410970
v 0.952002 7.470340 -8.385042
v 0.951362 7.518359 -8.379409
v 1.262549 4.182169 -7.971421
v 1.290843 4.823480 -8.150062
v 1.311179 5.477004 -8.278456
v 1.323430 6.138713 -8.355810
v 1.322541 7.518359 -8.350196
v 0.000000 7.518359 -8.454283
v -0.710121 7.518359 -8.398395
v 1.327523 6.804527 -8.381648
v 1.323430 7.470340 -8.355810
v 2.505256 7.518359 -8.066252
v 2.506941 7.470340 -8.071674
v 2.391615 4.182169 -7.700356
v 2.445211 4.823480 -7.872923
v 2.483733 5.477004 -7.996950
v 2.506941 6.138713 -8.071674
v 2.514693 6.804527 -8.096633
vt 0.672823 0.632096
vt 1.211588 0.632096
vt 1.211588 0.828823
vt 0.672823 0.828823
vt 1.211588 0.985347
vt 0.672823 0.985347
vt 0.672823 0.999623
vt 0.514198 0.999623
vt 0.514198 0.985347
vt 0.672823 0.041913
vt 0.672823 0.238641
vt 0.514198 0.238641
vt 0.514198 0.041913
vt 0.672823 0.435368
vt 0.514198 0.435368
vt 0.514198 0.632096
vt 0.514198 0.828823
vt 0.221287 0.985347
vt 0.221287 0.999623
vt 1.211588 0.999623
vt 0.221287 0.828823
vt 0.221287 0.632096
vt 0.221287 0.435368
vt 0.221292 0.041913
vt 0.221292 0.238641
vt 0.000395 0.238641
vt 0.000395 0.041913
vt 1.211588 0.041913
vt 1.211588 0.238641
vt 0.221292 0.435368
vt 0.000395 0.435368
vt 1.211588 0.435368
vt 0.221292 0.632096
vt 0.000395 0.632096
vt 0.221287 0.238641
vt 0.221292 0.828823
vt 0.000395 0.828823
vt 0.221287 0.041913
vt 0.221292 0.985347
vt 0.000395 0.985347
vt 0.221292 0.999623
vt 0.000395 0.999623
vn -0.233266 0.039139 0.971625
vn -0.233266 0.039139 0.971625
vn -0.233266 0.039139 0.971625
vn -0.233266 0.039139 0.971625
vn -0.156434 0.000000 0.987688
vn -0.233445 0.000000 0.972370
vn -0.232730 -0.078219 0.969391
vn -0.155952 -0.078460 0.984644
vn -0.155952 -0.078460 0.984644
vn -0.155350 -0.117537 0.980842
vn -0.077919 -0.117180 0.990049
vn -0.078219 -0.078219 0.993863
vn -0.150561 0.271440 0.950606
vn -0.152112 0.233447 0.960398
vn -0.076304 0.232767 0.969535
vn -0.075530 0.270665 0.959706
vn -0.152112 0.233447 0.960398
vn -0.154508 0.156436 0.975528
vn -0.077499 0.155965 0.984718
vn -0.076304 0.232767 0.969535
vn -0.154508 0.156436 0.975528
vn -0.155952 0.078460 0.984644
vn -0.078219 0.078219 0.993863
vn -0.077499 0.155965 0.984718
vn -0.156434 0.000000 0.987688
vn -0.155952 -0.078460 0.984644
vn -0.078219 -0.078219 0.993863
vn -0.078459 0.000000 0.996917
vn 0.000000 -0.078460 0.996917
vn -0.078219 -0.078219 0.993863
vn -0.077919 -0.117180 0.990049
vn 0.000000 -0.117537 0.993069
vn -0.155952 -0.078460 0.984644
vn -0.232730 -0.078219 0.969391
vn -0.231837 -0.117180 0.965671
vn -0.155350 -0.117537 0.980842
vn 0.000000 0.000000 1.000000
vn -0.078459 0.000000 0.996917
vn -0.078219 -0.078219 0.993863
vn 0.000000 -0.078460 0.996917
vn 0.000000 0.078460 0.996917
vn -0.078219 0.078219 0.993863
vn -0.078459 0.000000 0.996917
vn 0.000000 0.000000 1.000000
vn 0.000000 0.156436 0.987688
vn -0.077499 0.155965 0.984718
vn -0.078219 0.078219 0.993863
vn 0.000000 0.078460 0.996917
vn 0.000000 0.271440 0.962455
vn 0.000000 0.233447 0.972369
vn 0.076304 0.232767 0.969535
vn 0.075530 0.270665 0.959706
vn -0.150561 0.271440 0.950606
vn -0.224732 0.270665 0.936075
vn -0.227033 0.232767 0.945661
vn -0.152112 0.233447 0.960398
vn 0.000000 0.233447 0.972369
vn 0.000000 0.156436 0.987688
vn 0.077499 0.155965 0.984718
vn 0.076304 0.232767 0.969535
vn -0.152112 0.233447 0.960398
vn -0.227033 0.232767 0.945661
vn -0.230589 0.155965 0.960471
vn -0.154508 0.156436 0.975528
vn -0.154508 0.156436 0.975528
vn -0.230589 0.155965 0.960471
vn -0.232730 0.078219 0.969391
vn -0.155952 0.078460 0.984644
vn 0.000000 0.156436 0.987688
vn 0.000000 0.078460 0.996917
vn 0.078219 0.078219 0.993863
vn 0.077499 0.155965 0.984718
vn 0.000000 0.233447 0.972369
vn -0.076304 0.232767 0.969535
vn -0.077499 0.155965 0.984718
vn 0.000000 0.156436 0.987688
vn 0.000000 0.078460 0.996917
vn 0.000000 0.000000 1.000000
vn 0.078459 0.000000 0.996917
vn 0.078219 0.078219 0.993863
vn -0.155952 0.078460 0.984644
vn -0.156434 0.000000 0.987688
vn -0.078459 0.000000 0.996917
vn -0.078219 0.078219 0.993863
vn 0.000000 0.271440 0.962455
vn -0.075530 0.270665 0.959706
vn -0.076304 0.232767 0.969535
vn 0.000000 0.233447 0.972369
vn 0.000000 0.000000 1.000000
vn 0.000000 -0.078460 0.996917
vn 0.078219 -0.078219 0.993863
vn 0.078459 0.000000 0.996917
vn 0.000000 -0.078460 0.996917
vn 0.000000 -0.117537 0.993069
vn 0.077919 -0.117180 0.990049
vn 0.078219 -0.078219 0.993863
s off
g sphere27
usemtl Tower2_Mesh2:material72
f 87/69/161 98/70/162 99/71/163 91/72/164
f 91/72/165 99/71/166 94/73/167 92/74/168
f 92/74/169 88/75/170 83/76/171 82/77/172
f 84/78/173 85/79/174 78/80/175 77/81/176
f 85/79/177 86/82/178 79/83/179 78/80/180
f 86/82/181 87/69/182 80/84/183 79/83/184
f 91/72/185 92/74/186 82/77/187 81/85/188
f 70/86/189 82/77/190 83/76/191 89/87/192
f 92/74/193 94/73/194 93/88/195 88/75/196
f 69/89/197 81/85/198 82/77/199 70/86/200
f 68/90/201 80/84/202 81/85/203 69/89/204
f 67/91/205 79/83/206 80/84/207 68/90/208
f 65/92/209 66/93/210 75/94/211 76/95/212
f 84/78/213 95/96/214 96/97/215 85/79/216
f 66/93/217 67/98/218 74/99/219 75/94/220
f 85/79/221 96/97/222 97/100/223 86/82/224
f 86/82/225 97/100/226 98/70/227 87/69/228
f 67/98/229 68/101/230 73/102/231 74/99/232
f 66/103/233 78/80/234 79/83/235 67/91/236
f 68/101/237 69/104/238 72/105/239 73/102/240
f 87/69/241 91/72/242 81/85/243 80/84/244
f 65/106/245 77/81/246 78/80/247 66/103/248
f 69/104/249 70/107/250 71/108/251 72/105/252
f 70/107/253 89/109/254 90/110/255 71/108/256
g default
v -3.746172 4.852063 -6.955271
v -3.664060 4.213215 -6.783897
v -3.805188 5.503849 -7.078476
v -3.840744 6.164526 -7.152716
v -3.852621 6.829998 -7.177515
v -3.840744 7.496153 -7.152716
v -4.230081 7.569401 -6.621091
v -4.243161 6.903588 -6.643662
v -4.230081 6.237774 -6.621091
v -4.190921 5.576065 -6.553518
v -4.125922 4.922541 -6.441358
v -4.035486 4.281230 -6.285304
v -1.262549 4.182169 -7.971421
v -1.290843 4.823480 -8.150062
v -1.311179 5.477004 -8.278456
v -1.323430 6.138713 -8.355810
v -1.327523 6.804527 -8.381648
v -1.323430 7.470340 -8.355810
v -0.710121 7.518359 -8.398395
v -1.322541 7.518359 -8.350196
v -2.612517 7.518359 -8.040501
v -3.838164 7.544036 -7.149879
v -4.227239 7.616856 -6.620092
v -0.677909 4.182169 -8.017433
v -0.710598 7.470340 -8.404041
v -0.712795 6.804527 -8.430028
v -2.614273 7.470340 -8.045906
v -2.622357 6.804527 -8.070785
v -2.614273 6.138713 -8.045906
v -0.710598 6.138713 -8.404041
v -0.693101 4.823480 -8.197105
v -2.494010 4.182169 -7.675773
v -2.549901 4.823480 -7.847789
v -2.590072 5.477004 -7.971421
v -0.704020 5.477004 -8.326240
vt 0.480658 0.043774
vt 0.480658 0.239895
vt 0.126066 0.239895
vt 0.126066 0.043774
vt 0.480658 0.985397
vt 0.480658 0.999629
vt 0.126065 0.999629
vt 0.126066 0.985397
vt 0.004097 0.239895
vt 0.004097 0.043774
vt 0.126066 0.436016
vt 0.004097 0.436016
vt 0.835252 0.043774
vt 0.999451 0.043774
vt 0.999451 0.239895
vt 0.835252 0.239895
vt 0.999451 0.436016
vt 0.835252 0.436016
vt 0.835252 0.985397
vt 0.835251 0.999629
vt 0.835252 0.828258
vt 0.480658 0.828258
vt 0.999451 0.632137
vt 0.835252 0.632137
vt 0.126066 0.828258
vt 0.004097 0.985397
vt 0.004097 0.828258
vt 0.004097 0.999629
vt 0.480658 0.632137
vt 0.999451 0.985397
vt 0.999451 0.999629
vt 0.480658 0.436016
vt 0.126066 0.632137
vt 0.999451 0.828258
vt 0.004097 0.632137
vn 0.584289 0.268423 0.765869
vn 0.584289 0.268423 0.765869
vn 0.584289 0.268424 0.765869
vn 0.584289 0.268423 0.765869
vn 0.308064 -0.078460 0.948125
vn 0.306875 -0.117537 0.944464
vn 0.450844 -0.117537 0.884830
vn 0.452591 -0.078460 0.888260
vn 0.436946 0.271440 0.857554
vn 0.441446 0.233447 0.866388
vn 0.508147 0.232767 0.829220
vn 0.502996 0.270665 0.820814
vn 0.441446 0.233447 0.866388
vn 0.448401 0.156436 0.880037
vn 0.516104 0.155965 0.842206
vn 0.508147 0.232767 0.829220
vn 0.150561 0.271440 0.950606
vn 0.075530 0.270665 0.959706
vn 0.076304 0.232767 0.969535
vn 0.152112 0.233447 0.960398
vn 0.152112 0.233447 0.960398
vn 0.076304 0.232767 0.969535
vn 0.077499 0.155965 0.984718
vn 0.154508 0.156436 0.975528
vn 0.155952 -0.078460 0.984644
vn 0.155350 -0.117537 0.980842
vn 0.306875 -0.117537 0.944464
vn 0.308064 -0.078460 0.948125
vn 0.156434 0.000000 0.987688
vn 0.155952 -0.078460 0.984644
vn 0.308064 -0.078460 0.948125
vn 0.309017 0.000000 0.951056
vn 0.154508 0.156436 0.975528
vn 0.077499 0.155965 0.984718
vn 0.078219 0.078219 0.993863
vn 0.155952 0.078460 0.984644
vn 0.453990 0.000000 0.891007
vn 0.452591 -0.078460 0.888260
vn 0.520898 -0.078219 0.850028
vn 0.522498 0.000000 0.852640
vn 0.452591 -0.078460 0.888260
vn 0.450844 -0.117537 0.884830
vn 0.518899 -0.117180 0.846766
vn 0.520898 -0.078219 0.850028
vn 0.155952 0.078460 0.984644
vn 0.156434 0.000000 0.987688
vn 0.309017 0.000000 0.951056
vn 0.308064 0.078460 0.948125
vn 0.155952 -0.078460 0.984644
vn 0.078219 -0.078219 0.993863
vn 0.077919 -0.117180 0.990049
vn 0.155350 -0.117537 0.980842
vn 0.154508 0.156436 0.975528
vn 0.155952 0.078460 0.984644
vn 0.308064 0.078460 0.948125
vn 0.305212 0.156436 0.939347
vn 0.152112 0.233447 0.960398
vn 0.154508 0.156436 0.975528
vn 0.305212 0.156436 0.939347
vn 0.300479 0.233447 0.924778
vn 0.150561 0.271440 0.950606
vn 0.152112 0.233447 0.960398
vn 0.300479 0.233447 0.924778
vn 0.297415 0.271440 0.915349
vn 0.300479 0.233447 0.924778
vn 0.305212 0.156436 0.939347
vn 0.448401 0.156436 0.880037
vn 0.441446 0.233447 0.866388
vn 0.305212 0.156436 0.939347
vn 0.308064 0.078460 0.948125
vn 0.452591 0.078460 0.888260
vn 0.448401 0.156436 0.880037
vn 0.308064 0.078460 0.948125
vn 0.309017 0.000000 0.951056
vn 0.453990 0.000000 0.891007
vn 0.452591 0.078460 0.888260
vn 0.156434 0.000000 0.987688
vn 0.078459 0.000000 0.996917
vn 0.078219 -0.078219 0.993863
vn 0.155952 -0.078460 0.984644
vn 0.309017 0.000000 0.951056
vn 0.308064 -0.078460 0.948125
vn 0.452591 -0.078460 0.888260
vn 0.453990 0.000000 0.891007
vn 0.452591 0.078460 0.888260
vn 0.453990 0.000000 0.891007
vn 0.522498 0.000000 0.852640
vn 0.520898 0.078219 0.850028
vn 0.448401 0.156436 0.880037
vn 0.452591 0.078460 0.888260
vn 0.520898 0.078219 0.850028
vn 0.516104 0.155965 0.842206
vn 0.155952 0.078460 0.984644
vn 0.078219 0.078219 0.993863
vn 0.078459 0.000000 0.996917
vn 0.156434 0.000000 0.987688
s off
g sphere24
usemtl Tower2_Mesh2:material74
f 131/111/257 132/112/258 100/113/259 101/114/260
f 126/115/261 120/116/262 121/117/263 105/118/264
f 101/114/265 100/113/266 110/119/267 111/120/268
f 100/113/269 102/121/270 109/122/271 110/119/272
f 112/123/273 123/124/274 130/125/275 113/126/276
f 113/126/277 130/125/278 134/127/279 114/128/280
f 117/129/281 119/130/282 120/116/283 126/115/284
f 116/131/285 117/129/286 126/115/287 127/132/288
f 114/128/289 134/127/290 129/133/291 115/134/292
f 104/135/293 105/118/294 106/136/295 107/137/296
f 105/118/297 121/117/298 122/138/299 106/136/300
f 115/134/301 116/131/302 127/132/303 128/139/304
f 117/129/305 124/140/306 118/141/307 119/130/308
f 114/128/309 115/134/310 128/139/311 133/142/312
f 113/126/313 114/128/314 133/142/315 132/112/316
f 112/123/317 113/126/318 132/112/319 131/111/320
f 132/112/321 133/142/322 102/121/323 100/113/324
f 133/142/325 128/139/326 103/143/327 102/121/328
f 128/139/329 127/132/330 104/135/331 103/143/332
f 116/131/333 125/144/334 124/140/335 117/129/336
f 127/132/337 126/115/338 105/118/339 104/135/340
f 103/143/341 104/135/342 107/137/343 108/145/344
f 102/121/345 103/143/346 108/145/347 109/122/348
f 115/134/349 129/133/350 125/144/351 116/131/352
