# This file uses centimeters as units for non-parametric coordinates.

mtllib OppFullTrackRails WIDE2.mtl
g default
v 3.520147 -0.625738 1.793604
v 3.946482 0.110075 -0.625061
v 3.960347 0.062243 -0.472769
v 3.957884 -0.283121 0.393795
v 3.344966 -0.512833 2.104971
v 3.539561 -0.441643 1.803496
v 3.745330 -0.313836 1.346134
v 3.875862 -0.169140 0.909306
v 3.757390 -0.625738 1.220850
v 3.938575 -0.313836 0.623809
v 3.950753 0.000000 0.625738
v 3.906042 -0.132560 0.789731
v 3.911832 0.000000 0.787859
v 3.870344 -0.313836 0.908011
v 3.974894 0.057786 0.290160
v 3.995188 0.122479 0.000000
v 3.333690 -0.625738 2.097875
v 3.792499 -0.313836 1.232258
v 3.793647 -0.283121 1.232631
v 3.871515 -0.283121 0.908286
v 3.977712 0.224695 -0.171026
v 4.000000 0.000000 0.000000
v 3.953792 0.230653 -0.471986
v 3.942783 0.205393 -0.624476
v 3.850982 -0.482387 0.903468
v 3.977293 0.000000 -0.288522
v 3.950653 -0.313836 0.470335
v 3.939766 -0.283121 0.623998
v 3.929083 -0.395034 0.622306
v 3.994235 -0.146718 0.000000
v 3.971716 0.140651 0.289168
v 3.947828 0.075383 0.625275
v 3.909374 0.054174 0.789007
v 3.958756 0.098614 0.474828
vt 0.437490 0.739573
vt 0.495385 0.739573
vt 0.219536 0.883427
vt 0.219536 0.739573
vt 0.320727 0.807443
vt 0.655444 0.370968
vt 0.655444 0.002360
vt 0.873397 0.002360
vt 0.873397 0.219924
vt 0.698376 0.370968
vt 0.655444 0.407044
vt 0.119039 0.739573
vt 0.219536 0.567252
vt 0.437490 0.407044
vt 0.357083 0.407044
vt 0.539295 0.407044
vt 0.539295 0.540916
vt 0.383867 0.370968
vt 0.437490 0.370968
vt 0.496358 0.583880
vt 0.539295 0.370968
vt 0.437490 0.275007
vt 0.998858 0.002360
vt 0.998858 0.135792
vt 0.539295 0.171772
vt 0.054763 0.812679
vt 0.159830 1.003481
vt 0.054763 1.010482
vt 0.001583 0.868857
vt 0.001583 0.980812
vt 0.320471 0.904770
vt 0.437490 0.828112
vt 0.495914 0.803201
vt 0.385104 0.855397
vn -0.948124 0.078462 -0.308065
vn -0.944464 0.117537 -0.306876
vn -0.884831 0.117537 -0.450844
vn -0.884831 0.117537 -0.450844
vn -0.921048 0.078224 -0.381512
vn -0.948124 0.078462 -0.308065
vn -0.921048 0.078224 -0.381512
vn -0.958095 0.039250 -0.283750
vn -1.000000 0.000000 -0.000001
vn -0.996917 0.000000 0.078458
vn -0.999229 0.039260 -0.000001
vn -0.986927 0.039250 -0.156313
vn -0.987689 0.000001 -0.156433
vn -1.000000 0.000000 -0.000001
vn -0.999229 0.039260 -0.000001
vn -0.996154 0.039127 -0.078399
vn -0.971625 0.039135 -0.233265
vn -0.958095 0.039250 -0.283750
vn -0.971625 0.039140 -0.233265
vn -0.986927 0.039250 -0.156313
vn -0.996154 0.039127 -0.078399
vn -0.993864 0.078208 -0.078218
vn -0.984644 0.078450 -0.155952
vn -0.986927 0.039250 -0.156313
vn -0.971625 0.039135 -0.233265
vn -0.971625 0.039140 -0.233265
vn -0.971625 0.039140 -0.233264
vn -0.972371 0.000002 -0.233443
vn -0.987689 0.000001 -0.156433
vn -0.984644 0.078450 -0.155952
vn -0.969391 0.078215 -0.232730
vn -0.971625 0.039135 -0.233265
vn -0.986927 0.039250 -0.156313
vn -0.948124 0.078462 -0.308065
vn -0.958095 0.039250 -0.283750
vn -0.971625 0.039135 -0.233265
vn -0.969391 0.078215 -0.232730
vn -0.984644 0.078450 -0.155952
vn -0.993864 0.078208 -0.078218
vn -0.980842 0.117538 -0.155350
vn -0.846767 0.117179 -0.518898
vn -0.846767 0.117179 -0.518898
vn -0.884831 0.117537 -0.450844
vn -0.884831 0.117537 -0.450844
vn -0.948124 0.078462 -0.308065
vn -0.969391 0.078215 -0.232730
vn -0.965671 0.117180 -0.231837
vn -0.944464 0.117537 -0.306876
vn -0.996153 -0.039139 0.078400
vn -0.996917 0.000000 0.078458
vn -1.000000 0.000000 -0.000001
vn -0.999229 -0.039260 -0.000001
vn -0.996154 -0.039140 0.078398
vn -0.996153 -0.039139 0.078400
vn -0.996153 -0.039138 0.078401
vn -0.996153 -0.039139 0.078400
vn -0.996153 -0.039139 0.078400
vn -0.996153 -0.039138 0.078401
vn -0.969391 0.078215 -0.232730
vn -0.984644 0.078450 -0.155952
vn -0.980842 0.117538 -0.155350
vn -0.965671 0.117180 -0.231837
vn -0.999229 -0.039260 -0.000001
vn -1.000000 0.000000 -0.000001
vn -0.987689 0.000001 -0.156433
vn -0.996154 -0.039134 -0.078399
vn -0.996154 -0.039134 -0.078399
vn -0.996154 -0.039134 -0.078399
vn -0.996154 -0.039138 -0.078399
vn -0.971626 -0.039137 -0.233263
vn -0.971626 -0.039137 -0.233263
vn -0.987689 0.000001 -0.156433
vn -0.972371 0.000002 -0.233443
s off
g RailA1
usemtl lambert2SG
f 18/6/1 9/7/2 1/8/3 6/9/4 7/10/5
f 18/6/6 7/10/7 19/11/8
f 22/4/9 26/12/10 30/13/11
f 28/14/12 11/1/13 22/4/14 30/13/15 4/15/16
f 20/16/17 19/11/18 8/17/19
f 28/14/20 4/15/21 27/18/22 10/19/23
f 28/14/24 20/16/25 8/17/26 12/20/27 13/2/28 11/1/29
f 10/19/30 14/21/31 20/16/32 28/14/33
f 18/6/34 19/11/35 20/16/36 14/21/37
f 10/19/38 27/18/39 29/22/40
f 17/23/41 5/24/42 6/9/43 1/8/44
f 18/6/45 14/21/46 25/25/47 9/7/48
f 3/26/49 26/12/50 22/4/51 16/3/52 21/27/53 23/28/54
f 2/29/55 3/26/56 23/28/57 24/30/58
f 14/21/59 10/19/60 29/22/61 25/25/62
f 16/3/63 22/4/64 11/1/65 32/32/66 34/34/67 31/31/68 15/5/69
f 33/33/70 32/32/71 11/1/72 13/2/73
g default
v 3.196227 -0.625738 2.322195
v 3.200163 -0.584630 2.325055
v 3.345102 -0.511473 2.105056
v 3.333690 -0.625738 2.097875
vt 0.076313 0.001106
vt 0.076313 0.021675
vt 0.001233 0.058280
vt 0.001233 0.001106
vn -0.846766 0.117182 -0.518899
vn -0.846766 0.117182 -0.518899
vn -0.846766 0.117182 -0.518899
vn -0.846766 0.117182 -0.518899
s off
g initialShadingGroup RailA2
f 35/35/74 36/36/75 37/37/76 38/38/77
g default
v -2.682864 -0.625738 2.888186
v -2.322195 -0.625738 3.196227
v -2.689846 -0.538873 2.895702
vt 0.996415 0.000548
vt -0.125598 0.000548
vt 0.996415 0.956767
vn 0.644975 0.117178 -0.755166
vn 0.644975 0.117178 -0.755166
vn 0.644975 0.117178 -0.755166
s off
g RailA3
usemtl lambert8SG
f 39/39/78 41/41/79 40/40/80
g default
v -3.813290 -0.283121 1.150811
v -3.947435 -0.085513 0.625212
v -3.793647 -0.283121 1.232631
v -2.793604 -0.625738 2.793604
v -3.792499 -0.313836 1.232258
v -2.682864 -0.625738 2.888186
v -3.554115 -0.283121 1.810912
v -3.950753 0.000000 0.625738
v -3.520147 -0.625738 1.793604
v -3.553039 -0.313836 1.810364
v -3.196227 -0.625738 2.322195
v -3.803179 -0.028032 1.235728
v -3.820848 0.000000 1.166833
v -3.943600 0.184332 0.624605
v -3.879668 0.108283 0.903663
v -3.879662 0.128170 0.900348
v -3.887141 0.142033 0.866872
v -3.912934 0.182787 0.752597
v -3.764499 0.000000 1.331977
v -3.640232 0.000000 1.631984
v -3.646030 0.020123 1.615926
v -3.556734 -0.208308 1.812246
v -3.763033 -0.050309 1.330368
v -3.761679 0.071382 1.331480
v -3.745671 0.080985 1.369142
v -3.629908 -0.156211 1.640921
v -2.690037 -0.536494 2.895908
v -2.803432 -0.508314 2.803432
v -3.220834 -0.368742 2.340074
v -3.344610 -0.313836 2.150488
v -3.410704 -0.283121 2.044938
vt 0.290943 0.000853
vt 0.055974 0.000855
vt 0.525911 0.387421
vt 0.525911 0.000853
vt 0.760879 0.387421
vt 0.760879 0.425255
vt 0.792466 0.425255
vt 0.995849 0.668657
vt 0.995849 0.773986
vt 0.525911 0.425255
vt 0.000776 0.000853
vt 0.760879 0.739459
vt 0.787534 0.773986
vt 0.995849 1.001035
vt 0.888595 0.907363
vt 0.889824 0.931859
vt 0.902679 0.948934
vt 0.946577 0.999133
vt 0.722018 0.773986
vt 0.600457 0.773986
vt 0.606865 0.798773
vt 0.525911 0.517404
vt 0.722353 0.712018
vt 0.721868 0.861911
vt 0.706560 0.873740
vt 0.595724 0.581575
vt 0.000776 0.111461
vt 0.055974 0.146388
vt 0.290943 0.319371
vt 0.376119 0.387421
vt 0.422876 0.425255
vn 0.888259 0.078470 -0.452591
vn 0.884831 0.117536 -0.450844
vn 0.940644 0.065384 -0.333037
vn 0.923172 0.039135 -0.382390
vn 0.923172 0.039135 -0.382390
vn 0.923172 0.039135 -0.382390
vn 0.890319 0.039269 -0.453640
vn 0.950323 0.039265 -0.308778
vn 0.923172 0.039135 -0.382390
vn 0.923172 0.039135 -0.382390
vn 0.923172 0.039135 -0.382390
vn 0.940644 0.065384 -0.333037
vn 0.950323 0.039265 -0.308778
vn 0.890319 0.039269 -0.453640
vn 0.888259 0.078470 -0.452591
vn 0.923171 -0.039142 -0.382391
vn 0.923171 -0.039142 -0.382391
vn 0.923171 -0.039142 -0.382391
vn 0.923171 -0.039142 -0.382391
vn 0.923171 -0.039142 -0.382391
vn 0.950323 0.039265 -0.308778
vn 0.940644 0.065384 -0.333037
vn 0.971625 0.039143 -0.233266
vn 0.971625 0.039137 -0.233266
vn 0.971625 0.039137 -0.233266
vn 0.950323 0.039265 -0.308778
vn 0.971625 0.039143 -0.233266
vn 0.971625 0.039138 -0.233266
vn 0.972370 0.000001 -0.233445
vn 0.972370 0.000001 -0.233445
vn 0.971625 -0.039138 -0.233266
vn 0.971625 -0.039138 -0.233266
vn 0.971625 -0.039138 -0.233266
vn 0.971625 -0.039138 -0.233266
vn 0.971625 -0.039138 -0.233266
vn 0.971625 -0.039138 -0.233266
vn 0.702206 0.117537 -0.702205
vn 0.644978 0.117181 -0.755163
vn 0.644978 0.117181 -0.755163
vn 0.644977 0.117180 -0.755165
vn 0.755166 0.117178 -0.644975
vn 0.755166 0.117178 -0.644975
vn 0.755166 0.117178 -0.644975
vn 0.755166 0.117178 -0.644975
vn 0.884831 0.117536 -0.450844
vn 0.888259 0.078470 -0.452591
vn 0.846766 0.117177 -0.518899
vn 0.846766 0.117177 -0.518899
vn 0.803409 0.117536 -0.583711
vn 0.888259 0.078470 -0.452591
vn 0.890319 0.039269 -0.453640
vn 0.851986 0.039163 -0.522098
vn 0.851986 0.039163 -0.522098
vn 0.890319 0.039269 -0.453640
vn 0.851987 0.039139 -0.522098
vn 0.851987 0.039139 -0.522098
s off
g RailA4
usemtl lambert7SG
f 51/44/81 50/45/82 46/46/83
f 61/61/84 67/67/85 63/63/86 48/51/87 44/47/88 53/53/89 64/64/90 60/60/91
f 46/46/92 44/47/93 48/51/94 51/44/95
f 60/60/96 65/65/97 66/66/98 62/62/99 61/61/100
f 44/47/101 46/46/102 42/48/103
f 54/54/104 53/53/105 44/47/106 42/48/107 43/49/108 49/50/109
f 49/50/110 55/55/111 59/59/112 58/58/113 57/57/114 56/56/115 54/54/116
f 45/43/117 69/69/118 68/68/119 47/52/120
f 52/42/121 70/70/122 69/69/123 45/43/124
f 50/45/125 51/44/126 71/71/127 70/70/128 52/42/129
f 51/44/130 48/51/131 72/72/132 71/71/133
f 48/51/134 63/63/135 72/72/136
g default
v -3.455047 -0.625738 1.899838
v -3.167661 -0.803251 2.301440
v -2.932985 -0.933781 2.536354
v -2.731413 -1.028374 2.731413
v -2.641254 -0.933781 2.843392
v -2.682864 -0.625738 2.888186
v -2.613138 -1.080584 2.813125
v -3.196227 -0.625738 2.322195
v -2.750277 -0.933781 2.750277
v -2.793604 -0.625738 2.793604
vt 0.584989 0.999635
vt 0.584989 0.615438
vt 0.963124 0.999635
vt 0.111740 0.999639
vt 0.111740 0.332928
vt 0.329880 0.332928
vt 0.111740 0.124300
vt 0.000567 0.332928
vt 0.000567 0.009145
vt 0.000567 0.999635
vn 0.836356 0.194514 -0.512517
vn 0.836356 0.194514 -0.512517
vn 0.836356 0.194514 -0.512517
vn 0.793472 0.195092 -0.576491
vn 0.693521 0.195091 -0.693519
vn 0.687570 0.233447 -0.687568
vn 0.739519 0.232766 -0.631610
vn 0.793472 0.195092 -0.576491
vn 0.687570 0.233447 -0.687568
vn 0.680559 0.271439 -0.680559
vn 0.739519 0.232766 -0.631610
vn 0.687570 0.233447 -0.687568
vn 0.631612 0.232767 -0.739517
vn 0.625208 0.270664 -0.732022
vn 0.680559 0.271439 -0.680559
vn 0.687570 0.233447 -0.687568
vn 0.693521 0.195091 -0.693519
vn 0.637047 0.194513 -0.745879
vn 0.631612 0.232767 -0.739517
s off
g RailB4
usemtl lambert6SG
f 80/73/137 74/74/138 73/75/139
f 80/73/140 82/76/141 81/77/142 75/78/143 74/74/144
f 81/77/145 76/79/146 75/78/147
f 81/77/148 77/80/149 79/81/150 76/79/151
f 81/77/152 82/76/153 78/82/154 77/80/155
g default
v -0.930229 -0.816488 3.788261
v -1.765787 -0.933781 3.465552
v -1.727082 -1.236068 3.389590
v -1.210832 -0.788720 3.726557
v 0.454154 -1.595697 3.629827
v 0.000000 -1.585628 3.670211
v -1.152376 -1.439529 3.546647
v -1.714662 -1.310226 3.365214
v -1.949705 -1.236068 3.253167
v -2.246700 -1.171934 3.092317
v -2.614254 -1.074759 2.814326
v 0.000000 -0.933781 3.889480
v -1.175571 -1.236068 3.618034
v -1.201915 -0.933781 3.699115
v 0.471333 -1.236068 3.767131
v 0.000000 -1.236068 3.804226
v 0.000000 -1.530734 3.695518
v 0.457864 -1.530734 3.659483
v -2.641254 -0.933781 2.843392
v -2.286179 -0.933781 3.146655
v -0.578106 -1.530734 3.650020
v -0.595112 -1.236068 3.757390
v -0.608449 -0.933781 3.841594
v -0.921948 -0.933781 3.766329
v -2.322195 -0.625738 3.196227
v -2.682864 -0.625738 2.888186
v 0.481895 -0.933781 3.851554
v -1.785214 -0.718645 3.503681
vt 0.142468 0.048741
vt 0.000474 0.048741
vt 0.000474 -0.023429
vt 0.142468 -0.012242
vt 0.321752 0.048741
vt 0.501036 0.365612
vt 0.321752 0.365612
vt 0.501036 0.146820
vt 0.142468 0.365612
vt 0.000474 0.365612
vt 0.321752 0.682481
vt 0.142468 0.682481
vt 0.859604 0.682481
vt 0.859604 0.999348
vt 0.680320 0.903780
vt 0.680320 0.682481
vt 0.501036 0.682481
vt 0.501036 0.831698
vt 0.417150 0.803135
vt 0.416459 0.682481
vt 0.680320 0.365612
vt 0.680320 0.285865
vt 0.758736 0.365612
vt 0.859604 0.432840
vt 0.998863 0.682481
vt 0.998863 0.534703
vt 0.000474 0.682481
vt 0.998863 0.999348
vn -0.071291 0.417595 -0.905832
vn -0.071291 0.417595 -0.905832
vn -0.071291 0.417595 -0.905832
vn -0.071291 0.417595 -0.905832
vn -0.000000 0.382686 -0.923878
vn -0.000000 0.418659 -0.908143
vn 0.121714 0.370450 -0.920843
vn 0.293893 0.309019 -0.904508
vn 0.148778 0.309020 -0.939346
vn 0.121714 0.370450 -0.920843
vn 0.289917 0.346117 -0.892273
vn -0.000000 0.382686 -0.923878
vn -0.000000 0.309020 -0.951056
vn -0.074641 0.308158 -0.948403
vn -0.072520 0.381678 -0.921446
vn 0.148778 0.309020 -0.939346
vn 0.150561 0.271440 -0.950606
vn -0.000000 0.271441 -0.962455
vn -0.000000 0.309020 -0.951056
vn 0.571544 0.233448 -0.786663
vn 0.576491 0.195092 -0.793472
vn 0.445267 0.195091 -0.873886
vn 0.441446 0.233448 -0.866388
vn 0.300479 0.233448 -0.924778
vn 0.303079 0.195091 -0.932782
vn 0.228987 0.194513 -0.953798
vn 0.227034 0.232767 -0.945661
vn 0.293893 0.309019 -0.904508
vn 0.300479 0.233448 -0.924778
vn 0.227034 0.232767 -0.945661
vn 0.150561 0.271440 -0.950606
vn 0.148778 0.309020 -0.939346
vn 0.431770 0.309019 -0.847397
vn 0.293893 0.309019 -0.904508
vn 0.289917 0.346117 -0.892273
vn 0.425930 0.346115 -0.835935
vn 0.431770 0.309019 -0.847397
vn 0.425930 0.346115 -0.835935
vn 0.497071 0.308157 -0.811147
vn 0.571544 0.233448 -0.786663
vn 0.441446 0.233448 -0.866388
vn 0.431770 0.309019 -0.847397
vn 0.497071 0.308157 -0.811147
vn 0.565717 0.271440 -0.778643
vn 0.631610 0.232767 -0.739519
vn 0.571544 0.233448 -0.786663
vn 0.565717 0.271440 -0.778643
vn 0.625207 0.270664 -0.732023
vn -0.000000 0.309020 -0.951056
vn -0.000000 0.271441 -0.962455
vn -0.075531 0.270666 -0.959706
vn -0.074641 0.308158 -0.948403
vn 0.571544 0.233448 -0.786663
vn 0.631610 0.232767 -0.739519
vn 0.637044 0.194514 -0.745882
vn 0.576491 0.195092 -0.793472
vn 0.121714 0.370450 -0.920843
vn 0.148778 0.309020 -0.939346
vn -0.000000 0.309020 -0.951056
vn -0.000000 0.382686 -0.923878
vn 0.441446 0.233448 -0.866388
vn 0.445267 0.195091 -0.873886
vn 0.303079 0.195091 -0.932782
vn 0.300479 0.233448 -0.924778
vn 0.431770 0.309019 -0.847397
vn 0.441446 0.233448 -0.866388
vn 0.300479 0.233448 -0.924778
vn 0.293893 0.309019 -0.904508
s off
g RailB3
usemtl lambert5SG
f 99/83/156 100/84/157 87/85/158 88/86/159
f 99/83/160 88/86/161 103/87/162
f 95/88/163 104/89/164 103/87/165 89/90/166
f 99/83/167 98/91/168 97/92/169 100/84/170
f 104/89/171 105/93/172 94/94/173 98/91/174
f 102/95/175 107/96/176 110/97/177 84/98/178
f 96/99/179 86/100/180 83/101/181 106/102/182
f 95/88/183 96/99/184 106/102/185 105/93/186 104/89/187
f 85/103/188 95/88/189 89/90/190 90/104/191
f 85/103/192 90/104/193 91/105/194
f 102/95/195 84/98/196 85/103/197 91/105/198 92/106/199
f 101/107/200 102/95/201 92/106/202 93/108/203
f 98/91/204 94/94/205 109/109/206 97/92/207
f 102/95/208 101/107/209 108/110/210 107/96/211
f 103/87/212 104/89/213 98/91/214 99/83/215
f 84/98/216 110/97/217 86/100/218 96/99/219
f 85/103/220 84/98/221 96/99/222 95/88/223
g default
v 3.333690 -0.625738 2.097875
v 2.198135 -1.411001 3.025473
v 3.127421 -1.018078 2.272205
v 2.750277 -0.933781 2.750277
v 0.578106 -1.530734 3.650020
v 0.595112 -1.236068 3.757390
v 0.455501 -1.572114 3.640593
v 3.117132 -0.625738 2.414803
v 2.774972 -0.758204 2.774972
v 2.286179 -0.933781 3.146655
v 2.236068 -1.236068 3.077684
v 1.141978 -1.530734 3.514647
v 3.281986 -0.933781 2.065338
v 0.574918 -1.574940 3.629892
v 1.175571 -1.236068 3.618034
v 0.479793 -0.993953 3.834749
v 1.765787 -0.933781 3.465552
v 1.727082 -1.236068 3.389590
v 0.457864 -1.530734 3.659483
v 3.196227 -0.625738 2.322195
v 3.146655 -0.933781 2.286179
v 2.296329 -0.846965 3.160626
v 0.471333 -1.236068 3.767131
v 0.605721 -0.995618 3.824369
v 2.689994 -1.236068 2.689994
v 1.687483 -1.472504 3.311872
v 1.198318 -0.975051 3.688045
vt 0.612083 0.356778
vt 0.434787 0.356778
vt 0.434787 0.165936
vt 0.612083 0.098840
vt 0.257491 0.356778
vt 0.257491 0.678237
vt 0.080196 0.678237
vt 0.080196 0.588594
vt 0.004956 0.678237
vt 0.257491 0.861463
vt 0.115026 0.999698
vt 0.080196 0.999698
vt 0.434787 0.678237
vt 0.434787 0.768835
vt 0.789378 0.356778
vt 0.789378 0.035314
vt 0.966674 0.356778
vt 0.966674 0.612478
vt 0.789378 0.634351
vt 0.966674 0.035314
vt 0.999760 0.035314
vt 0.999760 0.356778
vt 0.612083 0.678237
vt 0.966674 -0.014507
vt 0.999760 -0.011322
vt 0.004956 0.999698
vt 0.999760 0.614249
vn -0.490384 0.345175 -0.800236
vn -0.490384 0.345175 -0.800236
vn -0.490384 0.345175 -0.800236
vn -0.490384 0.345175 -0.800236
vn -0.559017 0.309019 -0.769420
vn -0.657685 0.296447 -0.692509
vn -0.551455 0.346117 -0.759013
vn -0.687569 0.233447 -0.687569
vn -0.786664 0.233447 -0.571544
vn -0.778643 0.271439 -0.565717
vn -0.657685 0.296447 -0.692509
vn -0.786664 0.233447 -0.571544
vn -0.829221 0.232767 -0.508145
vn -0.778643 0.271439 -0.565717
vn -0.687569 0.233447 -0.687569
vn -0.693520 0.195091 -0.693520
vn -0.745881 0.194513 -0.637045
vn -0.793472 0.195092 -0.576491
vn -0.786664 0.233447 -0.571544
vn -0.559017 0.309019 -0.769420
vn -0.571545 0.233448 -0.786663
vn -0.687569 0.233447 -0.687569
vn -0.657685 0.296447 -0.692509
vn -0.571545 0.233448 -0.786663
vn -0.576492 0.195092 -0.793471
vn -0.693520 0.195091 -0.693520
vn -0.687569 0.233447 -0.687569
vn -0.293893 0.309019 -0.904508
vn -0.431770 0.309019 -0.847397
vn -0.425930 0.346116 -0.835935
vn -0.264267 0.370449 -0.890467
vn -0.148776 0.309020 -0.939347
vn -0.150560 0.271440 -0.950606
vn -0.297415 0.271440 -0.915349
vn -0.293893 0.309019 -0.904508
vn -0.144525 0.382686 -0.912504
vn -0.072517 0.381679 -0.921446
vn -0.074638 0.308158 -0.948403
vn -0.148776 0.309020 -0.939347
vn -0.144525 0.382686 -0.912504
vn -0.148776 0.309020 -0.939347
vn -0.293893 0.309019 -0.904508
vn -0.264267 0.370449 -0.890467
vn -0.431770 0.309019 -0.847397
vn -0.462807 0.246080 -0.851619
vn -0.571545 0.233448 -0.786663
vn -0.559017 0.309019 -0.769420
vn -0.293893 0.309019 -0.904508
vn -0.297415 0.271440 -0.915349
vn -0.462807 0.246080 -0.851619
vn -0.431770 0.309019 -0.847397
vn -0.072517 0.381679 -0.921446
vn -0.144525 0.382686 -0.912504
vn -0.142064 0.418659 -0.896963
vn -0.071289 0.417593 -0.905833
vn -0.144525 0.382686 -0.912504
vn -0.264267 0.370449 -0.890467
vn -0.142064 0.418659 -0.896963
vn -0.786664 0.233447 -0.571544
vn -0.793472 0.195092 -0.576491
vn -0.836356 0.194514 -0.512517
vn -0.829221 0.232767 -0.508145
vn -0.148776 0.309020 -0.939347
vn -0.074638 0.308158 -0.948403
vn -0.075528 0.270666 -0.959706
vn -0.150560 0.271440 -0.950606
vn -0.462807 0.246080 -0.851619
vn -0.576492 0.195092 -0.793471
vn -0.571545 0.233448 -0.786663
s off
g RailB2
usemtl lambert4SG
f 128/111/224 121/112/225 112/113/226 136/114/227
f 121/112/228 135/115/229 112/113/230
f 114/116/231 131/117/232 113/118/233 135/115/234
f 131/117/235 123/119/236 113/118/237
f 114/116/238 119/120/239 118/121/240 130/122/241 131/117/242
f 121/112/243 120/123/244 114/116/245 135/115/246
f 120/123/247 132/124/248 119/120/249 114/116/250
f 125/125/251 128/111/252 136/114/253 122/126/254
f 116/127/255 134/128/256 137/129/257 125/125/258
f 115/130/259 129/131/260 133/132/261 116/127/262
f 115/130/263 116/127/264 125/125/265 122/126/266
f 128/111/267 127/133/268 120/123/269 121/112/270
f 125/125/271 137/129/272 127/133/273 128/111/274
f 129/131/275 115/130/276 124/134/277 117/135/278
f 115/130/279 122/126/280 124/134/281
f 131/117/282 130/122/283 111/136/284 123/119/285
f 116/127/286 133/132/287 126/137/288 134/128/289
f 127/133/290 132/124/291 120/123/292
g default
v 3.520147 -0.625738 1.793604
v 3.481110 -0.845999 1.773714
v 3.281986 -0.933781 2.065338
v 3.333690 -0.625738 2.097875
v 3.757390 -0.625738 1.220850
vt 0.634272 0.999286
vt 0.001253 0.999286
vt 0.634272 0.279194
vt 0.998657 0.999286
vt 0.998657 -0.007788
vn -0.906234 0.194509 -0.375375
vn -0.906234 0.194509 -0.375375
vn -0.906234 0.194509 -0.375375
vn -0.836355 0.194513 -0.512519
vn -0.873886 0.195090 -0.445268
vn -0.873886 0.195090 -0.445268
vn -0.836355 0.194513 -0.512519
s off
g RailB1
usemtl lambert3SG
f 138/138/293 142/139/294 139/140/295
f 141/141/296 138/138/297 139/140/298 140/142/299
