# This file uses centimeters as units for non-parametric coordinates.

mtllib Front Rail.mtl
g default
v 3.881062 0.313836 0.863368
v 3.802744 0.039674 1.235586
v 3.608137 0.039674 1.705407
v 3.868486 0.625738 0.758102
v 3.918071 0.489232 0.620561
v 3.844002 1.062007 0.118351
v 3.792499 0.313836 1.232258
v 3.902113 0.625738 0.618034
v 3.915728 0.625738 0.445037
v 3.851749 1.061861 0.020438
v 3.887656 0.699322 0.615744
v 3.870482 0.933781 0.241393
v 3.887856 0.933781 0.020630
vt 0.376022 0.565843
vt 0.461600 0.565843
vt 0.376022 0.639126
vt 0.744331 0.000931
vt 1.042843 0.000931
vt 0.744331 0.263455
vt 0.272929 0.565843
vt 0.376022 0.433502
vt 0.020205 0.872624
vt 0.153836 0.872624
vt 0.080033 1.000892
vt 0.020205 1.000745
vt 0.521032 0.263455
vn -0.975528 -0.156436 -0.154508
vn -0.960471 -0.155966 -0.230588
vn -0.968710 -0.195090 -0.153428
vn -0.950323 -0.039260 -0.308779
vn -0.923171 -0.039139 -0.382391
vn -0.956752 -0.065376 -0.283465
vn -0.975528 -0.156436 -0.154508
vn -0.984718 -0.155966 -0.077499
vn -0.980842 -0.117539 -0.155350
vn -0.969535 -0.232766 -0.076303
vn -0.984718 -0.155966 -0.077499
vn -0.975528 -0.156436 -0.154508
vn -0.968710 -0.195090 -0.153428
vn -0.969535 -0.232766 -0.076303
vn -0.969535 -0.232766 -0.076303
vn -0.969535 -0.232766 -0.076303
vn -0.959706 -0.270665 -0.075530
vn -0.959706 -0.270665 -0.075530
vn -0.956752 -0.065376 -0.283465
vn -0.960471 -0.155966 -0.230588
vn -0.975528 -0.156436 -0.154508
vn -0.980842 -0.117539 -0.155350
vn -0.969391 -0.078220 -0.232730
vn -0.956752 -0.065376 -0.283465
vn -0.969391 -0.078220 -0.232730
vn -0.950323 -0.039260 -0.308779
s off
g initialShadingGroup Front_Rail1
f 8/1/1 4/2/2 11/3/3
f 2/4/4 3/5/5 7/6/6
f 8/1/7 9/7/8 5/8/9
f 13/9/10 9/7/11 8/1/12 11/3/13 12/10/14
f 13/9/15 12/10/16 6/11/17 10/12/18
f 7/6/19 4/2/20 8/1/21 5/8/22 1/13/23
f 7/6/24 1/13/25 2/4/26
g default
v 1.164380 -1.334231 3.583592
v 3.156180 -0.874593 2.293099
v 1.727082 -1.236068 3.389590
v 1.677730 -1.530734 3.292731
v 2.615894 -1.236068 2.753281
v 3.533683 -0.497381 1.800501
v 3.216251 -0.416615 2.336743
v 2.172171 -1.530734 2.989737
v 2.236068 -1.236068 3.077684
v 3.561652 -0.067799 1.814753
v 2.278144 -0.982253 3.135596
v 3.417201 -0.625738 1.961597
v 3.088481 -0.933781 2.354292
v 1.101345 -1.815962 3.389590
v 2.780176 -0.721208 2.780176
v 2.699777 -1.187013 2.699777
v 1.216343 -1.815962 3.341956
v 3.196227 -0.625738 2.322195
v 1.141978 -1.530734 3.514647
v 0.541837 -1.995170 3.421021
v 1.093219 -1.862917 3.364581
v 2.364411 -0.933781 3.079838
v 3.595224 0.000000 1.740643
v 0.583802 -1.432034 3.685984
v 0.000000 -1.459745 3.721707
v 0.000000 -1.530734 3.695518
v 0.000000 -1.815962 3.564026
v 1.734770 -1.176026 3.404678
v 3.804226 0.000000 1.236068
v 0.557537 -1.815962 3.520147
v 0.578106 -1.530734 3.650020
v 2.925304 -0.625738 2.639404
v 3.802682 0.041327 1.235566
v 1.550989 -1.236068 3.462530
v 0.000000 -2.072263 3.420491
v 2.750277 -0.933781 2.750277
v 1.631011 -1.753956 3.201040
v 3.318153 -0.313836 2.193664
v 3.553039 -0.313836 1.810364
v 3.640667 -0.313836 1.598812
v 3.610352 0.041327 1.699891
vt 0.300266 0.841461
vt 0.300266 0.950375
vt 0.287276 0.980388
vt 0.200256 0.980388
vt 0.263668 0.841461
vt 0.900327 0.134877
vt 0.900327 0.276194
vt 0.800317 0.276194
vt 0.800317 0.134877
vt 0.300266 0.758300
vt 0.700307 0.417511
vt 0.732239 0.417511
vt 0.700307 0.445580
vt 0.500287 0.558828
vt 0.583439 0.558828
vt 0.500287 0.656347
vt 0.414955 0.558828
vt 0.500287 0.440444
vt 0.900327 0.323529
vt 0.800317 0.370434
vt 0.400277 0.700144
vt 0.400277 0.794894
vt 0.372116 0.841461
vt 0.332051 0.700144
vt 0.800317 0.110663
vt 0.900327 0.042460
vt 0.700307 0.276194
vt 0.600297 0.276194
vt 0.700307 0.165598
vt 0.467573 0.700144
vt 0.400277 0.585981
vt 0.600297 0.417511
vt 0.516613 0.417511
vt 0.600297 0.536168
vt 0.778058 0.134877
vt 0.999616 0.134877
vt 0.999616 0.002704
vt 0.999616 0.276194
vt 0.999616 0.310239
vt 0.280367 0.998617
vt 0.200256 0.998617
vn -0.923171 0.039138 -0.382391
vn -0.923171 0.039138 -0.382391
vn -0.923171 0.039138 -0.382391
vn -0.923171 0.039138 -0.382391
vn -0.923171 0.039138 -0.382391
vn -0.139384 0.453994 -0.880035
vn -0.144526 0.382687 -0.912504
vn -0.285494 0.382686 -0.878661
vn -0.275335 0.453994 -0.847396
vn -0.888260 0.078460 -0.452591
vn -0.921049 0.078219 -0.381512
vn -0.884831 0.117536 -0.450844
vn -0.431770 0.309019 -0.847397
vn -0.364061 0.308158 -0.878919
vn -0.436945 0.271441 -0.857554
vn -0.687569 0.233447 -0.687569
vn -0.631610 0.232766 -0.739519
vn -0.693520 0.195091 -0.693520
vn -0.687569 0.233447 -0.687569
vn -0.739519 0.232766 -0.631610
vn -0.680559 0.271438 -0.680559
vn -0.144526 0.382687 -0.912504
vn -0.146765 0.346117 -0.926641
vn -0.289917 0.346116 -0.892273
vn -0.285494 0.382686 -0.878661
vn -0.799056 0.156436 -0.580549
vn -0.803409 0.117535 -0.583712
vn -0.850028 0.078219 -0.520898
vn -0.888260 0.078460 -0.452591
vn -0.884831 0.117536 -0.450844
vn -0.842206 0.155966 -0.516104
vn -0.139384 0.453994 -0.880035
vn -0.275335 0.453994 -0.847396
vn -0.269616 0.488620 -0.829794
vn -0.136489 0.488620 -0.861755
vn -0.419432 0.382686 -0.823182
vn -0.526502 0.370449 -0.765221
vn -0.412288 0.418660 -0.809161
vn -0.888260 0.078460 -0.452591
vn -0.850028 0.078219 -0.520898
vn -0.890319 0.039260 -0.453641
vn -0.687569 0.233447 -0.687569
vn -0.693520 0.195091 -0.693520
vn -0.751099 0.155964 -0.641502
vn -0.799056 0.156436 -0.580549
vn -0.793472 0.195092 -0.576491
vn -0.739519 0.232766 -0.631610
vn -0.559017 0.309019 -0.769420
vn -0.617844 0.308157 -0.723401
vn -0.526502 0.370449 -0.765221
vn -0.799056 0.156436 -0.580549
vn -0.842206 0.155966 -0.516104
vn -0.793472 0.195092 -0.576491
vn -0.559017 0.309019 -0.769420
vn -0.565717 0.271439 -0.778643
vn -0.631610 0.232766 -0.739519
vn -0.687569 0.233447 -0.687569
vn -0.680559 0.271438 -0.680559
vn -0.617844 0.308157 -0.723401
vn -0.275335 0.453994 -0.847396
vn -0.341189 0.452882 -0.823704
vn -0.269616 0.488620 -0.829794
vn -0.275335 0.453994 -0.847396
vn -0.285494 0.382686 -0.878661
vn -0.419432 0.382686 -0.823182
vn -0.412288 0.418660 -0.809161
vn -0.341189 0.452882 -0.823704
vn -0.069952 0.452881 -0.888822
vn -0.139384 0.453994 -0.880035
vn -0.136489 0.488620 -0.861755
vn -0.068506 0.487472 -0.870447
vn -0.069952 0.452881 -0.888822
vn -0.072519 0.381679 -0.921446
vn -0.144526 0.382687 -0.912504
vn -0.139384 0.453994 -0.880035
vn -0.072519 0.381679 -0.921446
vn -0.073637 0.345178 -0.935644
vn -0.146765 0.346117 -0.926641
vn -0.144526 0.382687 -0.912504
vn -0.431770 0.309019 -0.847397
vn -0.436945 0.271441 -0.857554
vn -0.565717 0.271439 -0.778643
vn -0.559017 0.309019 -0.769420
vn -0.419432 0.382686 -0.823182
vn -0.431770 0.309019 -0.847397
vn -0.559017 0.309019 -0.769420
vn -0.526502 0.370449 -0.765221
vn -0.923879 0.000001 -0.382684
vn -0.923879 0.000001 -0.382684
vn -0.923172 -0.039138 -0.382390
vn -0.923172 -0.039138 -0.382390
vn -0.799056 0.156436 -0.580549
vn -0.751099 0.155964 -0.641502
vn -0.803409 0.117535 -0.583712
vn -0.285494 0.382686 -0.878661
vn -0.289917 0.346116 -0.892273
vn -0.364061 0.308158 -0.878919
vn -0.431770 0.309019 -0.847397
vn -0.419432 0.382686 -0.823182
s off
g Front_Rail5
usemtl lambert3SG
f 52/14/27 23/15/28 36/16/29 42/17/30 53/18/31
f 43/19/32 44/20/33 32/21/34 27/22/35
f 52/14/36 53/18/37 19/23/38
f 16/24/39 47/25/40 41/26/41
f 49/27/42 35/28/43 28/29/44
f 49/27/45 26/30/46 29/31/47
f 44/20/48 37/32/49 14/33/50 32/21/51
f 31/34/52 20/35/53 51/36/54 52/14/55 19/23/56 25/37/57
f 43/19/58 27/22/59 34/38/60 33/39/61
f 17/40/62 21/41/63 50/42/64
f 52/14/65 51/36/66 23/15/67
f 49/27/68 28/29/69 45/43/70 31/34/71 15/44/72 26/30/73
f 22/45/74 18/46/75 21/41/76
f 31/34/77 25/37/78 15/44/79
f 22/45/80 24/47/81 35/28/82 49/27/83 29/31/84 18/46/85
f 27/22/86 30/48/87 34/38/88
f 27/22/89 32/21/90 17/40/91 50/42/92 30/48/93
f 40/49/94 43/19/95 33/39/96 48/50/97
f 40/49/98 39/51/99 44/20/100 43/19/101
f 39/51/102 38/52/103 37/32/104 44/20/105
f 16/24/106 41/26/107 24/47/108 22/45/109
f 17/40/110 16/24/111 22/45/112 21/41/113
f 42/17/114 36/16/115 54/53/116 46/54/117
f 31/34/118 45/43/119 20/35/120
f 32/21/121 14/33/122 47/25/123 16/24/124 17/40/125
g default
v -1.075745 -1.963887 3.310803
v -2.151912 -1.605497 2.961853
v -2.283046 -1.530734 2.895040
v -3.196227 -0.625738 2.322195
v -3.146655 -0.933781 2.286179
v -2.669897 -1.313107 2.669897
v -2.800551 -1.236068 2.560549
v -3.116176 -1.067365 2.264034
v -3.258141 -0.933781 2.104251
v -3.505653 -0.707516 1.786219
v -3.562238 -0.625738 1.691988
v -3.894196 0.000000 0.861316
v -0.578106 -1.530734 3.650020
v -3.899383 0.041327 0.832780
v -3.686660 0.041327 1.515669
v -3.667396 0.000000 1.566405
v -3.559204 -0.137743 1.813505
v -3.396054 -0.313836 2.066540
v -3.208984 -0.492509 2.331463
v -3.030755 -0.625738 2.515937
v -2.770430 -0.790497 2.770430
v -2.481910 -0.933781 2.979485
v -2.269822 -1.032450 3.124142
v -1.158750 -1.383614 3.566266
v -0.582861 -1.448339 3.680043
v 0.000000 -1.453348 3.724067
v -3.792499 -0.313836 1.232258
v -3.804226 0.000000 1.236068
v -1.618034 -1.815962 3.175571
v -1.677730 -1.530734 3.292731
v -0.535083 -2.072263 3.378379
v -1.727082 -1.236068 3.389590
v -3.520147 -0.625738 1.793604
v -3.553039 -0.313836 1.810364
v -3.802682 0.041327 1.235566
v 0.000000 -1.530734 3.695518
v 0.000000 -1.815962 3.564026
v 0.000000 -2.072263 3.420491
v -0.557537 -1.815962 3.520147
v -2.172171 -1.530734 2.989737
v -2.236068 -1.236068 3.077684
v -1.141978 -1.530734 3.514647
v -2.689994 -1.236068 2.689994
v -2.750277 -0.933781 2.750277
v -1.101345 -1.815962 3.389590
vt 0.201944 0.133118
vt 0.201944 0.056654
vt 0.302006 0.133118
vt 0.402068 0.276287
vt 0.302006 0.276287
vt 0.402068 0.238760
vt 0.427228 0.276287
vt 0.502130 0.416420
vt 0.402068 0.416420
vt 0.502130 0.379783
vt 0.530664 0.416420
vt 0.602192 0.558071
vt 0.502130 0.558071
vt 0.602192 0.495474
vt 0.637173 0.558071
vt 0.702254 0.699722
vt 0.602192 0.699722
vt 0.702254 0.662117
vt 0.720007 0.699722
vt 0.702254 0.841373
vt 0.802316 0.841373
vt 0.802316 0.983024
vt 0.863756 0.983024
vt 0.502130 0.623959
vt 0.444269 0.558071
vt 0.402068 0.511835
vt 0.802316 0.999700
vt 0.753964 0.999700
vt 0.745316 0.983024
vt 0.302006 0.416420
vt 0.201944 0.346252
vt 0.201944 0.276287
vt 0.104375 0.133118
vt 0.104375 0.276287
vt 0.004207 0.276287
vt 0.004207 0.133118
vt 0.104375 0.315471
vt 0.004207 0.313089
vt 0.868379 0.999700
vt 0.004207 0.000633
vt 0.104375 0.000633
vt 0.702254 0.920853
vt 0.654209 0.841373
vt 0.602192 0.760228
vt 0.561068 0.699722
vn 0.334135 0.487472 -0.806675
vn 0.334135 0.487472 -0.806675
vn 0.334135 0.487472 -0.806675
vn 0.543042 0.382686 -0.747433
vn 0.419432 0.382686 -0.823182
vn 0.386660 0.442170 -0.809308
vn 0.533793 0.418659 -0.734703
vn 0.543042 0.382686 -0.747433
vn 0.533793 0.418659 -0.734703
vn 0.600282 0.381679 -0.702839
vn 0.672498 0.309019 -0.672498
vn 0.559016 0.309019 -0.769421
vn 0.543042 0.382686 -0.747433
vn 0.600282 0.381679 -0.702839
vn 0.663401 0.346117 -0.663402
vn 0.672498 0.309019 -0.672498
vn 0.663401 0.346117 -0.663402
vn 0.723401 0.308156 -0.617844
vn 0.786663 0.233447 -0.571545
vn 0.687569 0.233447 -0.687569
vn 0.672498 0.309019 -0.672498
vn 0.723401 0.308156 -0.617844
vn 0.778643 0.271439 -0.565718
vn 0.786663 0.233447 -0.571545
vn 0.778643 0.271439 -0.565718
vn 0.829220 0.232766 -0.508147
vn 0.880037 0.156435 -0.448401
vn 0.799056 0.156435 -0.580549
vn 0.786663 0.233447 -0.571545
vn 0.829220 0.232766 -0.508147
vn 0.873886 0.195090 -0.445267
vn 0.880037 0.156435 -0.448401
vn 0.873886 0.195090 -0.445267
vn 0.912573 0.155965 -0.378001
vn 0.888260 0.078460 -0.452591
vn 0.880037 0.156435 -0.448401
vn 0.912573 0.155965 -0.378001
vn 0.940645 0.065375 -0.333037
vn 0.951057 0.000003 -0.309017
vn 0.940645 0.065375 -0.333037
vn 0.972370 0.000004 -0.233445
vn 0.687569 0.233447 -0.687569
vn 0.693520 0.195091 -0.693520
vn 0.631610 0.232766 -0.739519
vn 0.672498 0.309019 -0.672498
vn 0.687569 0.233447 -0.687569
vn 0.631610 0.232766 -0.739519
vn 0.565717 0.271439 -0.778643
vn 0.559016 0.309019 -0.769421
vn 0.951057 0.000003 -0.309017
vn 0.950323 -0.039254 -0.308779
vn 0.923172 -0.039137 -0.382390
vn 0.923879 0.000001 -0.382684
vn 0.419432 0.382686 -0.823182
vn 0.452262 0.321344 -0.831984
vn 0.289917 0.346116 -0.892273
vn 0.285494 0.382686 -0.878661
vn 0.139384 0.453994 -0.880035
vn 0.144526 0.382687 -0.912504
vn 0.072519 0.381679 -0.921446
vn 0.069952 0.452881 -0.888822
vn 0.144526 0.382687 -0.912504
vn 0.146765 0.346117 -0.926641
vn 0.073637 0.345178 -0.935644
vn 0.072519 0.381679 -0.921446
vn 0.951057 0.000003 -0.309017
vn 0.972370 0.000004 -0.233445
vn 0.971625 -0.039130 -0.233267
vn 0.950323 -0.039254 -0.308779
vn 0.139384 0.453994 -0.880035
vn 0.069952 0.452881 -0.888822
vn 0.068506 0.487472 -0.870447
vn 0.136489 0.488620 -0.861755
vn 0.940645 0.065375 -0.333037
vn 0.951057 0.000003 -0.309017
vn 0.923879 0.000001 -0.382684
vn 0.890319 0.039260 -0.453641
vn 0.888260 0.078460 -0.452591
vn 0.386660 0.442170 -0.809308
vn 0.419432 0.382686 -0.823182
vn 0.285494 0.382686 -0.878661
vn 0.275335 0.453994 -0.847396
vn 0.559016 0.309019 -0.769421
vn 0.565717 0.271439 -0.778643
vn 0.452262 0.321344 -0.831984
vn 0.888260 0.078460 -0.452591
vn 0.890319 0.039260 -0.453641
vn 0.850028 0.078219 -0.520897
vn 0.543042 0.382686 -0.747433
vn 0.559016 0.309019 -0.769421
vn 0.452262 0.321344 -0.831984
vn 0.419432 0.382686 -0.823182
vn 0.880037 0.156435 -0.448401
vn 0.888260 0.078460 -0.452591
vn 0.850028 0.078219 -0.520897
vn 0.803409 0.117535 -0.583712
vn 0.799056 0.156435 -0.580549
vn 0.285494 0.382686 -0.878661
vn 0.289917 0.346116 -0.892273
vn 0.146765 0.346117 -0.926641
vn 0.144526 0.382687 -0.912504
vn 0.275335 0.453994 -0.847396
vn 0.139384 0.453994 -0.880035
vn 0.136489 0.488620 -0.861755
vn 0.269616 0.488621 -0.829793
vn 0.275335 0.453994 -0.847396
vn 0.285494 0.382686 -0.878661
vn 0.144526 0.382687 -0.912504
vn 0.139384 0.453994 -0.880035
vn 0.799056 0.156435 -0.580549
vn 0.803409 0.117535 -0.583712
vn 0.751099 0.155965 -0.641502
vn 0.786663 0.233447 -0.571545
vn 0.799056 0.156435 -0.580549
vn 0.751099 0.155965 -0.641502
vn 0.693520 0.195091 -0.693520
vn 0.687569 0.233447 -0.687569
s off
g Front_Rail6
usemtl lambert4SG
f 99/55/126 55/56/127 83/57/128
f 94/58/129 84/59/130 83/57/131 56/60/132
f 94/58/133 56/60/134 57/61/135
f 97/62/136 95/63/137 94/58/138 57/61/139 60/64/140
f 97/62/141 60/64/142 61/65/143
f 59/66/144 98/67/145 97/62/146 61/65/147 62/68/148
f 59/66/149 62/68/150 63/69/151
f 87/70/152 58/71/153 59/66/154 63/69/155 64/72/156
f 87/70/157 64/72/158 65/73/159
f 88/74/160 87/70/161 65/73/162 81/75/163
f 82/76/164 81/75/165 66/77/166
f 98/67/167 75/78/168 76/79/169
f 97/62/170 98/67/171 76/79/172 77/80/173 95/63/174
f 82/76/175 89/81/176 69/82/177 70/83/178
f 84/59/179 86/84/180 78/85/181 96/86/182
f 93/87/183 67/88/184 90/89/185 91/90/186
f 67/88/187 79/91/188 80/92/189 90/89/190
f 82/76/191 66/77/192 68/93/193 89/81/194
f 93/87/195 91/90/196 92/94/197 85/95/198
f 81/75/199 82/76/200 70/83/201 71/96/202 88/74/203
f 83/57/204 84/59/205 96/86/206 99/55/207
f 95/63/208 77/80/209 86/84/210
f 88/74/211 71/96/212 72/97/213
f 94/58/214 95/63/215 86/84/216 84/59/217
f 87/70/218 88/74/219 72/97/220 73/98/221 58/71/222
f 96/86/223 78/85/224 79/91/225 67/88/226
f 99/55/227 93/87/228 85/95/229 55/56/230
f 99/55/231 96/86/232 67/88/233 93/87/234
f 58/71/235 73/98/236 74/99/237
f 59/66/238 58/71/239 74/99/240 75/78/241 98/67/242
g default
v -3.867021 0.933781 0.285368
v -3.682057 0.039674 1.526950
v -3.902113 0.625738 0.618034
v -3.938575 0.313836 0.623809
v -3.897793 0.039674 0.839677
v -3.943511 0.313836 0.561089
v -3.802744 0.039674 1.235586
v -3.795696 0.228270 1.233297
v -3.824893 0.313836 1.097328
v -3.878104 0.625738 0.718038
v -3.884368 0.716061 0.615224
v -3.858416 0.933781 0.394711
v -3.837784 1.006763 0.395330
v -3.925687 0.625738 0.318498
v -3.847243 1.004692 0.282557
v -3.940544 0.263102 0.624121
vt 0.287805 0.001054
vt 0.287805 0.205291
vt 0.050202 0.001054
vt 0.760517 0.297953
vt 0.392633 0.297953
vt 0.594564 0.001054
vt 0.760517 0.243012
vt 0.760517 0.637817
vt 0.682097 0.637817
vt 0.808045 0.297953
vt 0.989619 0.637817
vt 1.011521 0.977681
vt 0.926573 0.977681
vt 0.760517 0.737470
vt 1.012589 1.057408
vt 0.924443 1.059736
vn 0.923172 -0.039142 -0.382390
vn 0.923171 -0.039142 -0.382390
vn 0.923172 -0.039142 -0.382390
vn 0.984644 -0.078460 -0.155952
vn 0.969391 -0.078220 -0.232730
vn 0.950323 -0.039260 -0.308779
vn 0.950323 -0.039260 -0.308779
vn 0.971625 -0.039139 -0.233267
vn 0.986927 -0.039259 -0.156314
vn 0.984644 -0.078460 -0.155952
vn 0.975528 -0.156436 -0.154509
vn 0.960471 -0.155966 -0.230588
vn 0.969391 -0.078220 -0.232730
vn 0.984644 -0.078460 -0.155952
vn 0.986927 -0.039259 -0.156314
vn 0.993863 -0.078220 -0.078219
vn 0.975528 -0.156436 -0.154509
vn 0.984717 -0.155966 -0.077499
vn 0.969535 -0.232767 -0.076304
vn 0.969535 -0.232767 -0.076304
vn 0.968710 -0.195090 -0.153428
vn 0.969535 -0.232767 -0.076304
vn 0.959706 -0.270665 -0.075530
vn 0.959706 -0.270665 -0.075530
vn 0.969535 -0.232767 -0.076304
vn 0.975528 -0.156436 -0.154509
vn 0.984644 -0.078460 -0.155952
vn 0.993863 -0.078220 -0.078219
vn 0.984717 -0.155966 -0.077499
vn 0.975528 -0.156436 -0.154509
vn 0.968710 -0.195090 -0.153428
vn 0.960471 -0.155966 -0.230588
s off
g Front_Rail4
usemtl lambert2SG
f 106/100/243 107/101/244 101/102/245
f 103/103/246 108/104/247 107/101/248 106/100/249 104/105/250 115/106/251
f 103/103/252 102/107/253 109/108/254 108/104/255
f 103/103/256 115/106/257 105/109/258
f 102/107/259 113/110/260 100/111/261 111/112/262 110/113/263
f 100/111/264 114/114/265 112/115/266 111/112/267
f 102/107/268 103/103/269 105/109/270 113/110/271
f 102/107/272 110/113/273 109/108/274
